<svg id="Layer_5" enable-background="new 0 0 64 64" height="512" viewBox="0 0 64 64" width="512" xmlns="http://www.w3.org/2000/svg"><g><path d="m38 30c0 2.206 1.794 4 4 4s4-1.794 4-4v-2h-8zm6 0c0 1.103-.897 2-2 2s-2-.897-2-2z"/><path d="m46 24c-.552 0-1-.448-1-1h-2c0 1.654 1.346 3 3 3s3-1.346 3-3h-2c0 .552-.448 1-1 1z"/><path d="m41 23h-2c0 .552-.448 1-1 1s-1-.448-1-1h-2c0 1.654 1.346 3 3 3s3-1.346 3-3z"/><path d="m61.948 47.316c.043-.128 1.052-3.201 1.052-7.316 0-9.061-1.238-13.33-2.277-15.315-.473-.906-.723-1.942-.723-2.998 0-.95.225-1.899.648-2.747l.406-.813c.619-1.236.946-2.621.946-4.005v-.507c0-6.956-5.659-12.615-12.615-12.615-3.215 0-6.108 1.684-7.702 4.387-.526-.249-1.097-.387-1.683-.387-2.206 0-4 1.794-4 4 0 .05.012.102.014.152-4.544.788-8.014 4.749-8.014 9.515 0 1.345.301 2.677.843 3.905-.521.675-.843 1.511-.843 2.428 0 2.206 1.794 4 4 4h.051c.365 3.659 2.713 6.74 5.949 8.159v.892c0 .789-.466 1.507-1.188 1.827l-3.822 1.698c-1.591.708-3.095 1.583-4.51 2.591l1.462-11.75c.038-.22.058-.444.058-.668v-.843c0-2.154-1.752-3.906-3.907-3.906-.113 0-.223.017-.334.027-.539-2.61-1.853-6.01-2.488-7.573 1.619-.829 2.729-2.515 2.729-4.454 0-2.757-2.242-5-4.999-5h-5.001c-7.168 0-13 5.832-13 13v5.308c0 1.658-.313 3.28-.929 4.821l-.257.643c-.54 1.35-.814 2.773-.814 4.228 0 1.053.275 2.042.753 2.904-.474.963-.737 2.017-.748 3.096h-.005v19h22 2 36v-7.141c0-4.046-1.575-7.849-4.436-10.709-1.319-1.319-2.854-2.373-4.559-3.131l-4.818-2.142c-.721-.319-1.187-1.037-1.187-1.826v-.892c3.236-1.419 5.584-4.5 5.949-8.159h.051c2.206 0 4-1.794 4-4 0-.917-.322-1.753-.843-2.428.543-1.228.843-2.561.843-3.905 0-4.766-3.47-8.727-8.014-9.515.002-.05.014-.102.014-.152 0-2.044-1.545-3.715-3.526-3.952 1.276-1.281 3.016-2.048 4.911-2.048 5.853 0 10.615 4.762 10.615 10.615v.507c0 1.075-.254 2.15-.734 3.11l-.406.813c-.563 1.123-.86 2.383-.86 3.642 0 1.378.329 2.734.951 3.925.626 1.197 1.599 3.975 1.932 9.936-.528-.598-1.102-1.181-1.676-1.754-1.576-1.578-3.207-3.208-3.207-4.794h-2c0 2.414 1.928 4.343 3.793 6.207 1.576 1.577 3.207 3.207 3.207 4.793 0 3.773-.939 6.656-.949 6.685zm-21.948-40.316c.352 0 .695.1 1 .281v1.719h-3c0-1.103.897-2 2-2zm-10 18c0-1.103.897-2 2-2v4c-1.103 0-2-.897-2-2zm7.432 16.792c.765.959 1.804 1.655 2.976 1.986-.552.748-1.432 1.222-2.408 1.222-1.366 0-2.522-.918-2.881-2.181zm-17.018 13.208c-.779 0-1.563-.175-2.268-.507l-12.167-5.725c-1.81-.853-2.979-2.695-2.979-4.695 0-.487.07-.968.203-1.432 1.035.849 2.357 1.359 3.797 1.359 1.083 0 2.098-.293 2.976-.797l9.18 6.427.896 2.687 1.896-.633-.923-2.769 1.816-11.801 4.434.554-1.577 12.666c-.332 2.66-2.603 4.666-5.284 4.666zm-7.436-16.559c2.717 1.161 5.04 3.015 6.802 5.415l-.523 3.402-7.685-5.381c.798-.94 1.31-2.13 1.406-3.436zm7.71-2.828.275.55-.775 5.038c-.379-.42-.774-.823-1.188-1.204v-3.997c.595 0 1.164-.142 1.688-.387zm5.406-6.613c1.051 0 1.906.855 1.906 1.906v.843c0 .11-.01.22-.035.375l-.443 3.559-4.867-.608-.513-1.026c-.093-.187-.142-.394-.142-.601 0-.512.284-.972.74-1.2l1.077-.537.469-1.407c.26-.78.986-1.303 1.808-1.304zm-2.24-1.29c-.669.469-1.193 1.145-1.464 1.96l-.207.62-.336.168c-1.139.57-1.847 1.716-1.847 2.99 0 .087.023.173.03.26-.308.187-.66.292-1.03.292h-4v2h2v2.401c-1.233-.852-2.572-1.553-4-2.091v-5.546l-.895-1.789c-.069-.138-.105-.292-.105-.447v-.528c0-.552.448-1 1-1h1v-3.999c0-1.654 1.346-3 3-3h4.333c.592 1.448 2.053 5.17 2.521 7.709zm-20.182 6.804.257-.643c.711-1.778 1.071-3.65 1.071-5.563v-5.308c0-6.065 4.935-11 11-11h5.001c1.653 0 2.999 1.346 2.999 3s-1.347 3-3.001 3l-3.999.001c-2.757 0-5 2.243-5 5v2.17c-1.164.413-2 1.525-2 2.829v.528c0 .463.109.927.316 1.341l.684 1.367v6.764c0 2.206-1.794 4-4 4s-4-1.794-4-4c0-1.199.226-2.372.672-3.486zm-.672 26.486v-11.982c.603.635 1.312 1.175 2.127 1.559l12.168 5.727c.969.455 2.048.696 3.119.696.907 0 1.779-.169 2.586-.475v4.475zm52.15-14.436c2.482 2.482 3.85 5.783 3.85 9.295v5.141h-6v-2.838l.397-1.19c.4-1.202.603-2.452.603-3.717 0-2.328-.683-4.582-1.974-6.52l-.194-.291-1.664 1.111.194.29c1.072 1.608 1.638 3.478 1.638 5.41 0 1.05-.168 2.087-.5 3.084l-.5 1.499v3.162h-18v-3.162l-.499-1.499c-.333-.997-.501-2.034-.501-3.084 0-1.932.566-3.802 1.638-5.408l.194-.291-1.664-1.111-.194.292c-1.291 1.936-1.974 4.19-1.974 6.518 0 1.265.203 2.515.604 3.717l.396 1.19v2.838h-6v-5.141c0-.167.01-.333.016-.5 1.428-1.157 2.425-2.839 2.666-4.78l.45-3.621c1.575-1.323 3.31-2.432 5.169-3.31.687 1.955 2.528 3.352 4.699 3.352.273 0 .542-.025.805-.068-.531 1.962-.805 4.323-.805 7.068h2c0-4.32.715-6.879 1.343-8.302.241-.218.461-.457.657-.719.32.429.701.8 1.136 1.105.567 1.485.864 3.462.864 5.916h2c0-1.933-.185-3.607-.522-5.044.173.018.345.044.522.044 2.178 0 4.024-1.405 4.705-3.37l.489.217c1.48.658 2.811 1.572 3.956 2.717zm-6.27-3.744c-.358 1.262-1.514 2.18-2.88 2.18-.975 0-1.855-.475-2.408-1.223 1.171-.331 2.21-1.027 2.976-1.985zm-3.937-2.198c-.724.86-1.793 1.378-2.943 1.378s-2.219-.518-2.943-1.378c.595-.708.943-1.611.943-2.571v-.252c.646.131 1.315.201 2 .201s1.354-.07 2-.202v.252c0 .961.348 1.864.943 2.572zm5.057-12.622c0 4.411-3.589 8-8 8s-8-3.589-8-8v-5.982c0-1.332.895-2.519 2.176-2.885l3.204-.916c.556 1.059 1.667 1.783 2.944 1.783h4.676c1.654 0 3 1.346 3 3zm2-1v-4c1.103 0 2 .897 2 2s-.897 2-2 2zm2-8.333c0 .9-.167 1.794-.476 2.638-.47-.195-.984-.305-1.524-.305h-.424c-.774-1.763-2.531-3-4.576-3h-4.676c-.73 0-1.324-.594-1.324-1.324 0-.571.364-1.077.906-1.257l1.41-.47-.633-1.898-1.41.471c-1.219.406-2.08 1.468-2.245 2.716l-3.402.972c-1.8.516-3.131 2.006-3.508 3.791h-.118c-.54 0-1.054.11-1.524.305-.309-.844-.476-1.739-.476-2.639 0-4.228 3.439-7.667 7.667-7.667h8.666c4.228 0 7.667 3.439 7.667 7.667zm-8-9.667h-3v-1.719c.305-.181.648-.281 1-.281 1.103 0 2 .897 2 2z"/><path d="m54 33h-2c0 1.914 1.42 3.334 2.793 4.707 1.135 1.135 2.207 2.207 2.207 3.293h2c0-1.914-1.42-3.334-2.793-4.707-1.135-1.135-2.207-2.207-2.207-3.293z"/><path d="m19 24c-.552 0-1-.448-1-1h-2c0 1.654 1.346 3 3 3s3-1.346 3-3h-2c0 .552-.448 1-1 1z"/></g></svg>