<?xml version="1.0" encoding="UTF-8" standalone="no"?>
<svg
   xmlns:dc="http://purl.org/dc/elements/1.1/"
   xmlns:cc="http://creativecommons.org/ns#"
   xmlns:rdf="http://www.w3.org/1999/02/22-rdf-syntax-ns#"
   xmlns:svg="http://www.w3.org/2000/svg"
   xmlns="http://www.w3.org/2000/svg"
   viewBox="0 0 566.93335 566.93335"
   height="566.93335"
   width="566.93335"
   xml:space="preserve"
   id="svg2"
   version="1.1"><metadata
     id="metadata8"><rdf:RDF><cc:Work
         rdf:about=""><dc:format>image/svg+xml</dc:format><dc:type
           rdf:resource="http://purl.org/dc/dcmitype/StillImage" /></cc:Work></rdf:RDF></metadata><defs
     id="defs6"><clipPath
       id="clipPath194"
       clipPathUnits="userSpaceOnUse"><path
         id="path192"
         d="m 3076.66,2297.07 c -14.44,0 -36.48,5.46 -62.28,30.14 -4.6,4.4 -9.39,8.49 -14.28,12.3 15.8,1.43 30.46,3.81 43.25,7.4 5.92,1.34 11.82,2.73 17.69,4.2 6.55,-21.86 17.05,-41.08 33.78,-50.56 l -0.02,-0.04 c 0,0 -6.68,-3.44 -18.14,-3.44" /></clipPath></defs><g
     transform="matrix(1.3333333,0,0,-1.3333333,0,566.93333)"
     id="g10"><g
       transform="scale(0.1)"
       id="g12"><path
         id="path14"
         style="fill:#c16c5e;fill-opacity:1;fill-rule:nonzero;stroke:none"
         d="m 2649.3,2896.76 h 363.969 v 474.652 H 2649.3 Z" /><path
         id="path16"
         style="fill:#c16c5e;fill-opacity:1;fill-rule:nonzero;stroke:none"
         d="m 1867.93,3534.18 v -74.25 c 0,-19.05 15.43,-34.5 34.49,-34.5 h 1788.11 c 19.06,0 34.49,15.45 34.49,34.5 v 74.25 H 1867.93" /><path
         id="path18"
         style="fill:#c16c5e;fill-opacity:1;fill-rule:nonzero;stroke:none"
         d="m 1867.93,2893.69 v -74.24 c 0,-19.06 15.43,-34.52 34.49,-34.52 h 1788.11 c 19.06,0 34.49,15.46 34.49,34.52 v 74.24 H 1867.93" /><path
         id="path20"
         style="fill:#f0a71e;fill-opacity:1;fill-rule:nonzero;stroke:none"
         d="m 2541.15,3127.85 c 0,-129.32 -84.54,-234.16 -188.86,-234.16 -104.27,0 -188.84,104.84 -188.84,234.16 0,129.33 84.57,234.16 188.84,234.16 104.32,0 188.86,-104.83 188.86,-234.16" /><path
         id="path22"
         style="fill:#ffffff;fill-opacity:1;fill-rule:nonzero;stroke:none"
         d="m 2464.45,3127.85 c 0,-86.08 -50.21,-155.85 -112.16,-155.85 -61.93,0 -112.12,69.77 -112.12,155.85 0,86.08 50.19,155.87 112.12,155.87 61.95,0 112.16,-69.79 112.16,-155.87" /><path
         id="path24"
         style="fill:#f0a71e;fill-opacity:1;fill-rule:nonzero;stroke:none"
         d="m 3398.99,3061.54 c 0,-92.7 -60.58,-167.85 -135.34,-167.85 -74.8,0 -135.39,75.15 -135.39,167.85 0,92.71 60.59,167.85 135.39,167.85 74.76,0 135.34,-75.14 135.34,-167.85" /><path
         id="path26"
         style="fill:#ffffff;fill-opacity:1;fill-rule:nonzero;stroke:none"
         d="m 3344.02,3061.54 c 0,-61.72 -35.95,-111.73 -80.37,-111.73 -44.41,0 -80.42,50.01 -80.42,111.73 0,61.71 36.01,111.73 80.42,111.73 44.42,0 80.37,-50.02 80.37,-111.73" /><path
         id="path28"
         style="fill:#ffffff;fill-opacity:1;fill-rule:nonzero;stroke:none"
         d="M 2954.69,2955.89 H 2707.9 v 356.39 h 246.79 v -356.39" /><path
         id="path30"
         style="fill:#ef3034;fill-opacity:1;fill-rule:nonzero;stroke:none"
         d="m 2249.57,3940.71 v -89.32 h -13.93 v -19.59 h 389.73 c 34.4,0 62.29,27.88 62.29,62.3 v 4.74 c 0,34.4 -27.89,62.3 -62.29,62.3 h -389.73 v -20.43 h 13.93" /><path
         id="path32"
         style="fill:#e4d2cb;fill-opacity:1;fill-rule:nonzero;stroke:none"
         d="m 2614.86,3940.63 v 0.08 h -365.29 v -89.32 h 362.87 c 25.04,0 47.75,18.91 47.75,43.92 0,25.03 -20.29,45.32 -45.33,45.32" /><path
         id="path34"
         style="fill:#5967ba;fill-opacity:1;fill-rule:nonzero;stroke:none"
         d="m 2715.88,3809.74 v -96.45 h 15.01 v -21.17 H 2202.2 c -37.14,0 -67.26,30.11 -67.26,67.29 v 5.08 c 0,37.18 30.12,67.31 67.26,67.31 h 528.69 v -22.06 h -15.01" /><path
         id="path36"
         style="fill:#e4d2cb;fill-opacity:1;fill-rule:nonzero;stroke:none"
         d="m 2213.54,3809.64 v 0.1 h 502.34 v -96.45 h -499.72 c -27.02,0 -51.56,20.39 -51.56,47.41 0,27.04 21.9,48.94 48.94,48.94" /><path
         id="path38"
         style="fill:#64cbcb;fill-opacity:1;fill-rule:nonzero;stroke:none"
         d="m 2134.94,3667.17 v -109.06 h -17 v -23.93 h 597.83 c 42.01,0 76.08,34.04 76.08,76.1 v 5.75 c 0,42.02 -34.07,76.09 -76.08,76.09 h -597.83 v -24.95 h 17" /><path
         id="path40"
         style="fill:#e4d2cb;fill-opacity:1;fill-rule:nonzero;stroke:none"
         d="m 2702.94,3667.07 v 0.1 h -568 v -109.06 h 565.05 c 30.57,0 58.29,23.06 58.29,53.62 0,30.57 -24.74,55.34 -55.34,55.34" /><path
         id="path42"
         style="fill:#f0a71e;fill-opacity:1;fill-rule:nonzero;stroke:none"
         d="m 3040.39,3860.03 v -71.6 h -11.17 v -15.71 h 312.37 c 27.57,0 49.93,22.35 49.93,49.93 v 3.81 c 0,27.58 -22.36,49.93 -49.93,49.93 h -312.37 v -16.36 h 11.17" /><path
         id="path44"
         style="fill:#e4d2cb;fill-opacity:1;fill-rule:nonzero;stroke:none"
         d="m 3333.18,3859.97 v 0.06 h -292.79 v -71.6 h 290.83 c 20.08,0 38.25,15.14 38.25,35.2 0,20.05 -16.23,36.34 -36.29,36.34" /><path
         id="path46"
         style="fill:#f3612d;fill-opacity:1;fill-rule:nonzero;stroke:none"
         d="m 3414.12,3755.03 v -77.3 h 12.06 v -16.94 h -423.76 c -29.76,0 -53.9,24.1 -53.9,53.92 v 4.08 c 0,29.78 24.14,53.93 53.9,53.93 h 423.76 v -17.69 h -12.06" /><path
         id="path48"
         style="fill:#e4d2cb;fill-opacity:1;fill-rule:nonzero;stroke:none"
         d="m 3011.51,3754.97 v 0.06 h 402.61 v -77.3 h -400.5 c -21.65,0 -41.33,16.35 -41.33,38.01 0,21.67 17.55,39.23 39.22,39.23" /><path
         id="path50"
         style="fill:#5967ba;fill-opacity:1;fill-rule:nonzero;stroke:none"
         d="m 2948.52,3640.77 v -87.4 h -13.64 v -19.19 h 479.17 c 33.66,0 60.99,27.29 60.99,60.98 v 4.62 c 0,33.68 -27.33,61.01 -60.99,61.01 h -479.17 v -20.02 h 13.64" /><path
         id="path52"
         style="fill:#e4d2cb;fill-opacity:1;fill-rule:nonzero;stroke:none"
         d="m 3403.79,3640.71 v 0.06 h -455.27 v -87.4 h 452.87 c 24.51,0 46.71,18.47 46.71,42.98 0,24.49 -19.82,44.36 -44.31,44.36" /><path
         id="path54"
         style="fill:#d7c7bd;fill-opacity:1;fill-rule:nonzero;stroke:none"
         d="m 578.445,1838.01 c -16.297,0 -29.539,-13.24 -29.539,-29.56 v -523.31 c 0,-16.3 13.242,-29.51 29.539,-29.51 16.301,0 29.516,13.21 29.516,29.51 v 523.31 c 0,16.32 -13.215,29.56 -29.516,29.56" /><path
         id="path56"
         style="fill:#d7c7bd;fill-opacity:1;fill-rule:nonzero;stroke:none"
         d="m 1363.18,408.789 v 832.181 c 0,16.3 -13.18,29.51 -29.52,29.51 -16.28,0 -29.5,-13.21 -29.5,-29.51 V 408.789" /><path
         id="path58"
         style="fill:#d7c7bd;fill-opacity:1;fill-rule:nonzero;stroke:none"
         d="m 608.586,406 v 832.17 c 0,16.3 -13.188,29.5 -29.504,29.5 -16.277,0 -29.512,-13.2 -29.512,-29.5 V 406" /><path
         id="path60"
         style="fill:#ba7c6b;fill-opacity:1;fill-rule:nonzero;stroke:none"
         d="m 534.531,1277.14 v 49.95 c 0,70.55 57.18,127.73 127.735,127.73 h 605.054 c 70.55,0 127.76,-57.18 127.76,-127.73 v -49.95 H 534.531" /><path
         id="path62"
         style="fill:#ba7c6b;fill-opacity:1;fill-rule:nonzero;stroke:none"
         d="m 526.992,1808.45 v 380.14 c 0,55.44 44.903,100.4 100.371,100.4 h 49.309 c 55.418,0 100.391,-44.96 100.391,-100.4 V 1808.45 H 526.992" /><path
         id="path64"
         style="fill:#8b5c4e;fill-opacity:1;fill-rule:nonzero;stroke:none"
         d="m 534.531,1218.62 h 860.549 v 58.52 H 534.531 v -58.52" /><path
         id="path66"
         style="fill:#f09a7f;fill-opacity:1;fill-rule:nonzero;stroke:none"
         d="m 1419.33,1940.83 c -52.51,-13.4 -70.66,-16.65 -73.31,-7.8 -3.58,11.76 -74.27,76.08 -109.47,197.7 l 147.72,2.77 33.65,-186.04 c 0,0 53.88,6.72 1.41,-6.63" /><path
         id="path68"
         style="fill:#e2bcab;fill-opacity:1;fill-rule:nonzero;stroke:none"
         d="m 1404.68,2066.71 -30.38,164.09 c 0,0 -18.89,228.05 -139.09,233.89 -92.67,4.53 -70.73,-89.64 -37.39,-239.75 9.19,-41.24 41.71,-202.56 41.71,-202.56 l 165.15,44.33" /><path
         id="path70"
         style="fill:#923831;fill-opacity:1;fill-rule:nonzero;stroke:none"
         d="m 1544.81,786.48 c 19.88,19.301 61.93,-13.121 61.93,-13.121 24.77,-29.57 109.9,-147.859 112.19,-160.07 12.16,-64.141 -100.95,-28.148 -196.71,104.602 -12.63,17.507 5.43,59.089 22.59,68.589" /><path
         id="path72"
         style="fill:#923831;fill-opacity:1;fill-rule:nonzero;stroke:none"
         d="m 1330.39,784.172 c 27.33,16.199 62.43,-11.16 62.43,-11.16 25.84,-28.68 115.1,-143.492 117.89,-155.614 14.49,-63.617 -99.88,-31.816 -200.38,97.43 -13.26,17.004 3.27,59.242 20.06,69.344" /><path
         id="path74"
         style="fill:#d2543f;fill-opacity:1;fill-rule:nonzero;stroke:none"
         d="m 1283.32,1656.06 2.5,-26.11 c 0,0 334.2,-211.94 351.08,-255.63 16.92,-43.66 -6.53,-602.539 -1.79,-609.238 -0.11,0.109 -51.46,-29.633 -119.04,3.43 0,0 -44.94,503.358 -56.59,527.668 -10.83,22.63 -415.3,326.24 -462.363,359.88 h 286.203" /><path
         id="path76"
         style="fill:#f3624b;fill-opacity:1;fill-rule:nonzero;stroke:none"
         d="m 1112.09,1656.06 v -52.84 c 0,0 360.59,-211.31 369.88,-244.51 9.26,-33.19 -55.09,-591.249 -55.09,-591.249 -50.43,-35.031 -123.85,9.879 -123.91,9.918 4.6,6.57 -16.89,445.301 -16.89,483.671 0,20.45 -333.685,84.83 -449.635,179.22 -59.328,48.36 -59.277,159.02 -52.257,215.79 h 327.902" /><path
         id="path78"
         style="fill:#f09a7f;fill-opacity:1;fill-rule:nonzero;stroke:none"
         d="m 905.996,2477.19 c 67.324,24.05 56.133,146.92 56.133,146.92 H 1118.5 c 0,0 -11.12,-122.87 56.19,-146.92 6.46,-2.32 83.53,-109.59 -56.19,-109.59 -139.664,0 -217.398,107.85 -212.504,109.59" /><path
         id="path80"
         style="fill:#dd8e74;fill-opacity:1;fill-rule:nonzero;stroke:none"
         d="m 915.867,2481.71 c -0.012,0 -0.015,0.01 -0.015,0.01 l -0.039,0.05 c 49.058,27.83 47.789,115.08 46.636,137.2 0.004,0 0.016,-0.01 0.02,-0.01 1.152,-22.16 2.422,-109.43 -46.602,-137.25 m 203.593,91.76 c -0.55,5.06 -0.93,9.96 -1.19,14.59 0.06,0.01 0.12,0.02 0.18,0.03 0.21,-4.88 0.53,-9.85 1.01,-14.62" /><path
         id="path82"
         style="fill:#d35d47;fill-opacity:1;fill-rule:nonzero;stroke:none"
         d="m 935.117,2478.08 c -11.82,0 -18.859,3.43 -19.25,3.63 49.024,27.82 47.754,115.09 46.602,137.25 29.25,-21.81 66.561,-32.88 132.411,-32.88 8.02,0 15.78,0.55 23.39,1.98 0.26,-4.63 0.64,-9.53 1.19,-14.59 0.07,-0.69 0.14,-1.36 0.22,-2.04 0,0 -69.18,-14.35 -118.31,-61.31 -27.452,-26.24 -50.893,-32.04 -66.253,-32.04" /><path
         id="path84"
         style="fill:#f09a7f;fill-opacity:1;fill-rule:nonzero;stroke:none"
         d="m 867.988,2962.89 c 33.817,110.06 181.782,110.06 181.782,110.06 0,0 156.83,2.03 181.76,-110.06 22.95,-103.12 18.73,-215.88 -12.2,-275.21 -44.4,-85.19 -80.7,-101.6 -124.45,-101.6 -87.33,0 -124.47,19.47 -159.177,57.63 -82.832,91.12 -101.484,209.18 -67.715,319.18" /><path
         id="path86"
         style="fill:#923831;fill-opacity:1;fill-rule:nonzero;stroke:none"
         d="m 1236.04,2734.83 c 0,0 16.44,57.62 -3.82,75.5 -20.25,17.96 -13.47,28.59 -24.65,73.34 -11.19,44.78 -53.81,24.98 -82.96,55.97 -29.12,-15.04 -103.47,-3.9 -125.618,-60.12 -22.117,-56 -3.504,-61.16 -42.879,-63.91 -2.113,-0.16 -5.429,2.98 -9.203,6.11 -6.305,5.24 -13.879,10.49 -19.176,0.33 -8.515,-16.24 -28.8,-68.3 -18.515,-146.81 0,0 -94.395,57.89 -103.321,200.11 -7.539,120.75 36.68,98.95 79.707,191.8 47.188,101.6 186.625,79.96 233.205,51.7 0,0 100.74,45.22 149.04,-77.42 27.38,-69.37 14.38,-77.29 30.44,-138.24 23.68,-89.76 -62.25,-168.36 -62.25,-168.36" /><path
         id="path88"
         style="fill:#945e4c;fill-opacity:1;fill-rule:nonzero;stroke:none"
         d="m 1241.92,2768.41 c 1.24,15.99 -0.1,33.4 -9.7,41.92 -20.25,17.96 -13.47,28.59 -24.65,73.34 -11.19,44.78 -53.81,24.98 -82.96,55.97 v 0 0 c 29.15,-30.99 71.77,-11.19 82.96,-55.97 11.18,-44.75 4.4,-55.38 24.65,-73.34 9.61,-8.48 10.96,-25.9 9.73,-41.87 -0.01,-0.01 -0.02,-0.03 -0.03,-0.05" /><path
         id="path90"
         style="fill:#5c221c;fill-opacity:1;fill-rule:nonzero;stroke:none"
         d="m 1241.95,2768.46 c 1.23,15.97 -0.12,33.39 -9.73,41.87 -20.25,17.96 -13.47,28.59 -24.65,73.34 -11.19,44.78 -53.81,24.98 -82.96,55.97 v 0 c -32.49,47.56 -5.8,179.17 -5.8,179.21 0,-0.04 -23.58,-158.59 36.25,-170.93 68.64,-14.15 66.25,-39.89 70.81,-78.04 4.54,-38.13 15.95,-35.95 20.22,-56.15 3.98,-18.72 3.71,-26.81 -4.14,-45.27" /><path
         id="path92"
         style="fill:#5c221c;fill-opacity:1;fill-rule:nonzero;stroke:none"
         d="m 954.395,2903.19 c 3.476,10.46 11.257,32.3 33.222,50.64 26.953,22.6 55.273,59.45 55.273,59.45 4.22,-27.97 -15.02,-59.45 -39.75,-74.3 -21.128,-12.72 -48.745,-35.79 -48.745,-35.79" /><path
         id="path94"
         style="fill:#f1eeee;fill-opacity:1;fill-rule:nonzero;stroke:none"
         d="m 1180.88,2698.86 c -9.61,-29.26 -35.12,-50.4 -65.5,-50.4 -30.32,0 -55.84,21.14 -65.49,50.4 h 130.99" /><path
         id="path96"
         style="fill:#391f1c;fill-opacity:1;fill-rule:nonzero;stroke:none"
         d="m 1179.31,2843.74 h 5.92 l -4.21,4.16 c -0.94,-0.87 -1.76,-2.65 -1.71,-4.16 h 5.92 l -4.21,4.16 4.2,-4.15 -1.05,5.81 c -0.51,-0.16 -1.48,-0.12 -3.15,-1.66 l 4.2,-4.15 -1.05,5.81 1.04,-5.74 0.11,5.84 -1.15,-0.1 1.04,-5.74 0.11,5.84 -0.1,-5.33 0.18,5.32 -0.08,0.01 -0.1,-5.33 0.18,5.32 -0.2,0.01 c -1.36,-0.07 -2.27,-0.24 -3.71,-1.3 l -1.34,-1.52 c -0.37,-0.61 -0.84,-1.55 -0.88,-3.01 -0.03,-1.07 0.32,-2.4 1,-3.39 1.04,-1.52 2.34,-2.09 3.13,-2.35 l 1.79,-0.27 c 1.09,0.03 1.17,0.13 1.4,0.16 l 0.6,0.18 0.18,0.07 c 0.24,0.1 4.05,1.5 8.84,1.49 2.98,0 6.29,-0.52 9.52,-2.05 3.23,-1.56 6.49,-4.1 9.54,-8.7 1.79,-2.73 5.46,-3.5 8.19,-1.7 2.73,1.8 3.5,5.46 1.7,8.19 -4.11,6.29 -9.2,10.46 -14.35,12.89 -5.15,2.46 -10.27,3.21 -14.6,3.21 -3.76,-0.01 -6.96,-0.56 -9.28,-1.12 -1.15,-0.28 -2.09,-0.57 -2.76,-0.79 l -0.81,-0.28 -0.23,-0.09 -0.04,-0.01 1.68,-4.38 -1.64,4.39 -0.04,-0.01 1.68,-4.38 -1.64,4.39 2.03,-5.46 -1.91,5.5 -0.12,-0.04 2.03,-5.46 -1.91,5.5 1.94,-5.58 -1.72,5.66 -0.22,-0.08 1.94,-5.58 -1.72,5.66 1.72,-5.66 -1.4,5.75 -0.32,-0.09 1.72,-5.66 -1.4,5.75 1.4,-5.75 v 5.91 c -1.09,-0.03 -1.17,-0.13 -1.4,-0.16 l 1.4,-5.75 v 5.91 -5.9 l 2.28,5.44 c -1.12,0.45 -1.78,0.45 -2.28,0.46 v -5.9 l 2.28,5.44 -2.28,-5.45 5.49,2.21 c -0.75,1.87 -2.28,2.89 -3.21,3.24 l -2.28,-5.45 5.49,2.21 -5.49,-2.21 5.58,-1.98 c 0.36,0.94 0.57,2.58 -0.09,4.19 l -5.49,-2.21 5.58,-1.98 -5.58,1.98 3.72,-4.61 c 0.48,0.45 1.19,0.93 1.86,2.63 l -5.58,1.98 3.72,-4.61 -3.71,4.6 v -5.91 c 1.36,0.07 2.26,0.23 3.71,1.31 l -3.71,4.6 v -5.91 5.65 l -0.17,-5.65 h 0.17 v 5.65 l -0.17,-5.65 1.03,0.06 c 0.4,0.08 0.98,0.11 2.12,0.73 0.55,0.32 1.29,0.85 1.93,1.79 0.65,0.91 1.06,2.23 1.04,3.34 0,3.27 -2.65,5.92 -5.92,5.92 -3.26,0 -5.91,-2.65 -5.91,-5.92" /><path
         id="path98"
         style="fill:#26130f;fill-opacity:1;fill-rule:nonzero;stroke:none"
         d="m 1193.67,2818.58 c 7.89,0 14.27,-6.43 14.27,-14.33 0,-7.91 -6.38,-14.3 -14.27,-14.3 -7.91,0 -14.33,6.39 -14.33,14.3 0,7.9 6.42,14.33 14.33,14.33" /><path
         id="path100"
         style="fill:#26130f;fill-opacity:1;fill-rule:nonzero;stroke:none"
         d="m 1035.61,2818.58 c 7.91,0 14.28,-6.43 14.28,-14.33 0,-7.91 -6.37,-14.3 -14.28,-14.3 -7.88,0 -14.26,6.39 -14.26,14.3 0,7.9 6.38,14.33 14.26,14.33" /><path
         id="path102"
         style="fill:#391f1c;fill-opacity:1;fill-rule:nonzero;stroke:none"
         d="m 1046.27,2849.2 c -0.44,0.17 -5.75,2.41 -13.33,2.43 -4.31,0 -9.41,-0.76 -14.54,-3.23 -5.12,-2.46 -10.17,-6.65 -14.27,-12.94 -1.79,-2.74 -1.03,-6.41 1.71,-8.2 2.73,-1.79 6.4,-1.02 8.2,1.71 3.05,4.65 6.3,7.21 9.5,8.76 3.2,1.55 6.45,2.06 9.4,2.06 2.57,0 4.87,-0.4 6.47,-0.81 l 1.83,-0.53 0.42,-0.15 0.06,-0.03 0.77,1.92 -0.8,-1.9 0.03,-0.02 0.77,1.92 -0.8,-1.9 c 3.02,-1.27 6.48,0.15 7.75,3.16 1.27,3.02 -0.15,6.49 -3.17,7.75" /><path
         id="path104"
         style="fill:#ca826a;fill-opacity:1;fill-rule:nonzero;stroke:none"
         d="m 1122.95,2725.54 h -0.01 c -7.84,-0.01 -12.83,1.56 -16.03,3.54 -3.21,1.96 -4.38,4.33 -4.62,5.06 -0.79,2.2 0.35,4.62 2.55,5.41 0.47,0.17 0.95,0.26 1.43,0.26 1.63,0 3.16,-0.95 3.86,-2.5 l 0.03,-0.05 1.2,-1 c 1.5,-0.92 4.83,-2.26 11.58,-2.27 5.92,0.01 9.44,1.03 11.42,1.97 1.98,0.94 2.48,1.75 2.49,1.75 v 0 0 c 0.78,1.33 2.19,2.09 3.65,2.09 0.64,0 1.29,-0.14 1.89,-0.45 2.09,-1.04 2.94,-3.58 1.89,-5.67 -0.31,-0.64 -1.66,-2.81 -4.99,-4.69 -3.32,-1.88 -8.48,-3.45 -16.34,-3.45 m 15.56,11.03 v 0 m 0,0 v 0 m -1.79,0.9 v 0 0 0 m 0,0 v 0" /><path
         id="path106"
         style="fill:#f09a7f;fill-opacity:1;fill-rule:nonzero;stroke:none"
         d="m 941.98,2783.98 c -4.402,-2.67 -9.578,-4.19 -15.132,-4.19 -16.094,0 -29.172,13.03 -29.172,29.16 0,16.12 13.078,29.16 29.172,29.16 6.851,0 25.769,-3.21 29.785,-25.47" /><path
         id="path108"
         style="fill:#d7b3a3;fill-opacity:1;fill-rule:nonzero;stroke:none"
         d="m 781.023,1638.43 c 0,0 18.45,127.69 18.45,316.32 0,188.64 -31.77,490.53 22.91,507.64 17.121,5.37 65.215,8.23 83.613,14.8 0,0 95.834,-76.99 196.864,-76.99 101.01,0 71.83,76.99 71.83,76.99 0,0 44.12,-4.57 59.96,-25.53 60.56,-79.95 51.02,-467.39 58.6,-795.6 0,0 -83.94,-17.84 -173.57,-29.86 -89.61,-12.05 -281.438,-19.74 -338.657,12.23" /><path
         id="path110"
         style="fill:#e39278;fill-opacity:1;fill-rule:nonzero;stroke:none"
         d="m 776.641,1859.87 c -50.196,64.42 -65.164,224.88 -64.649,316.1 l 134.578,-57.3 30.84,-163.8 c 0,0 -59.363,-148.08 -100.769,-95" /><path
         id="path112"
         style="fill:#e2bcab;fill-opacity:1;fill-rule:nonzero;stroke:none"
         d="m 872.434,2047.32 c 0,0 0.203,95.27 2.039,150.15 1.882,54.87 47.324,245.94 -37.2,258.59 -84.531,12.67 -115.535,-58.12 -130.593,-209.58 -4.129,-41.6 -3.301,-204.49 -3.301,-204.49 l 169.055,5.33" /><path
         id="path114"
         style="fill:#f09a7f;fill-opacity:1;fill-rule:nonzero;stroke:none"
         d="m 1532.59,2297.04 c 0,0 -44.75,11.24 -46.28,-12.96 -4.43,-71.56 5.66,-111.87 5.66,-111.87 l -107.41,-145.89 c 0,0 -66.68,-81.3 -22.31,-119.94 44.41,-38.65 124.46,55.57 183.95,271.47 0,0 42.94,88.4 -13.61,119.19" /><path
         id="path116"
         style="fill:#49969d;fill-opacity:1;fill-rule:nonzero;stroke:none"
         d="m 1436.94,2351.96 c 91.99,68.62 229.6,47.03 229.6,47.03 l -232.63,-266.83 c 0,0 -99.8,14.33 -232.68,-71.55 l 235.71,291.35" /><path
         id="path118"
         style="fill:#61cbd1;fill-opacity:1;fill-rule:nonzero;stroke:none"
         d="m 1368.17,2349.75 c 0,0 -144.32,83.09 -319.56,18.85 L 822.273,2039.44 c 0,0 279.657,101.48 313.227,21.17 l 232.67,289.14" /><path
         id="path120"
         style="fill:#3d7d83;fill-opacity:1;fill-rule:nonzero;stroke:none"
         d="m 1436.94,2351.96 -3.03,9.11 c 91.98,68.63 232.63,49.23 232.63,49.23 v -11.31 c 0,0 -137.61,21.59 -229.6,-47.03" /><path
         id="path122"
         style="fill:#4a989e;fill-opacity:1;fill-rule:nonzero;stroke:none"
         d="M 1048.61,2379.92 V 2368.6 L 822.273,2039.44 v 11.31 l 226.337,329.17" /><path
         id="path124"
         style="fill:#57b5bb;fill-opacity:1;fill-rule:nonzero;stroke:none"
         d="m 1048.61,2379.92 c 175.24,64.25 319.56,-18.85 319.56,-18.85 v -11.32 c 0,0 -144.32,83.09 -319.56,18.85 v 11.32" /><path
         id="path126"
         style="fill:#57b5bb;fill-opacity:1;fill-rule:nonzero;stroke:none"
         d="m 1436.94,2351.96 c 0,0 -45.63,-27.46 -68.77,-2.21 L 1135.5,2060.61 c 0,0 17.56,-22.17 65.73,0 l 235.71,291.35" /><path
         id="path128"
         style="fill:#4a989e;fill-opacity:1;fill-rule:nonzero;stroke:none"
         d="m 1436.94,2351.96 c 0,0 -45.61,-27.41 -68.77,-2.21 l -0.04,11.03 c 23.31,-25.07 65.78,0.29 65.78,0.29 l 3.03,-8.89 v -0.22" /><path
         id="path130"
         style="fill:#bfc0b3;fill-opacity:1;fill-rule:nonzero;stroke:none"
         d="m 1434.03,2419.33 c -19.31,-26.01 -27.15,-53.95 -29.97,-67.73 -3.08,4.04 -7.31,9.24 -12.77,15.15 l 42.74,52.58" /><path
         id="path132"
         style="fill:#d6d8c9;fill-opacity:1;fill-rule:nonzero;stroke:none"
         d="m 1368.17,2360.74 v 0.33 c 0,0 -137.67,78.86 -307.28,22.74 l 11.95,18.38 c 200.29,99.73 307.34,-18.82 331.86,-51.45 -12.4,-2.05 -26.26,-0.99 -36.53,10" /><path
         id="path134"
         style="fill:#cdcec0;fill-opacity:1;fill-rule:nonzero;stroke:none"
         d="m 1660.28,2411 c -0.7,0.07 -1.81,0.17 -3.32,0.27 -32.8,2.92 -145.24,7.88 -223.05,-50.2 0,0 -13.89,-8.04 -30.06,-10.47 6.46,32.61 42.24,155.98 209.46,117.85 l -1.5,-15.55 c 0,0 16.28,-1.53 30.91,-8.85 l 1.02,-13.33 c 0,0 12.08,-4.01 17.6,-11.39 v -8.44 l -0.72,0.09 -0.34,0.02" /><path
         id="path136"
         style="fill:#f09a7f;fill-opacity:1;fill-rule:nonzero;stroke:none"
         d="m 804.863,1972.38 c 102.356,61.86 169.532,113.08 193.457,144.17 27.45,35.62 26.12,32.88 51.35,53.24 25.17,20.38 41.25,10.33 33.63,0.63 -9.34,-11.89 -17.6,-17.33 -19.79,-21.64 14.5,10.19 42.06,23.43 57.56,26.59 28.15,5.6 56.34,-13.49 41.41,-38.87 -50.24,-85.79 -113.26,-63.66 -124.85,-72.58 -110.638,-180.26 -213.841,-242.4 -252.122,-213.65 -32.188,24.2 -19.871,98.4 19.355,122.11" /><path
         id="path138"
         style="fill:#f09a7f;fill-opacity:1;fill-rule:nonzero;stroke:none"
         d="m 1491.97,2172.21 c -0.47,17.68 -25.65,62.58 -18.82,100.65 4.9,27.11 59.44,66.21 77.06,-7.26" /><path
         id="path140"
         style="fill:#ba7c6b;fill-opacity:1;fill-rule:nonzero;stroke:none"
         d="M 2656.5,1838.57 H 877.949 v 121.54 H 2656.5 v -121.54" /><path
         id="path142"
         style="fill:#e1d3cc;fill-opacity:1;fill-rule:nonzero;stroke:none"
         d="M 2602.49,1223.09 H 931.145 v 616.4 H 2602.49 v -616.4" /><path
         id="path144"
         style="fill:#d7c7bd;fill-opacity:1;fill-rule:nonzero;stroke:none"
         d="m 2418.99,413.379 h 67.2031 v 1428.67 H 2418.99 Z" /><path
         id="path146"
         style="fill:#d7c7bd;fill-opacity:1;fill-rule:nonzero;stroke:none"
         d="m 1023.5,410.719 h 67.1914 v 1428.68 H 1023.5 Z" /><path
         id="path148"
         style="fill:#ef3034;fill-opacity:1;fill-rule:nonzero;stroke:none"
         d="m 1820.96,2365.12 v -91.08 h -14.22 v -20.02 h 397.71 c 35.1,0 63.6,28.42 63.6,63.58 v 4.83 c 0,35.08 -28.5,63.61 -63.6,63.61 h -397.71 v -20.92 h 14.22" /><path
         id="path150"
         style="fill:#e4d2cb;fill-opacity:1;fill-rule:nonzero;stroke:none"
         d="m 2193.71,2365.08 v 0.04 h -372.75 v -91.08 h 370.29 c 25.6,0 48.73,19.25 48.73,44.78 0,25.51 -20.68,46.26 -46.27,46.26" /><path
         id="path152"
         style="fill:#5967ba;fill-opacity:1;fill-rule:nonzero;stroke:none"
         d="m 2296.83,2231.45 v -98.38 h 15.37 v -21.64 h -539.6 c -37.89,0 -68.64,30.78 -68.64,68.7 v 5.21 c 0,37.91 30.75,68.68 68.64,68.68 h 539.6 v -22.57 h -15.37" /><path
         id="path154"
         style="fill:#e4d2cb;fill-opacity:1;fill-rule:nonzero;stroke:none"
         d="m 1784.21,2231.4 v 0.05 h 512.62 v -98.38 h -509.97 c -27.56,0 -52.58,20.84 -52.58,48.42 0,27.56 22.33,49.91 49.93,49.91" /><path
         id="path156"
         style="fill:#64cbcb;fill-opacity:1;fill-rule:nonzero;stroke:none"
         d="m 1703.96,2086 v -111.3 h -17.36 v -24.45 h 610.17 c 42.84,0 77.52,34.78 77.52,77.72 v 5.83 c 0,42.87 -34.68,77.63 -77.52,77.63 H 1686.6 V 2086 h 17.36" /><path
         id="path158"
         style="fill:#e4d2cb;fill-opacity:1;fill-rule:nonzero;stroke:none"
         d="m 2283.69,2085.87 v 0.13 h -579.73 v -111.3 h 576.63 c 31.26,0 59.54,23.53 59.54,54.72 0,31.23 -25.25,56.45 -56.44,56.45" /><path
         id="path160"
         style="fill:#0f202c;fill-opacity:1;fill-rule:nonzero;stroke:none"
         d="m 2907.07,587.309 c -4.73,31.461 -25.41,44.382 -47.4,44.382 -56.38,0 -116.76,12.879 -139.38,6.957 -59.34,-15.519 0.73,-87.058 153.53,-105.578 20.14,-2.429 38.01,22.789 33.25,54.239" /><path
         id="path162"
         style="fill:#db8d73;fill-opacity:1;fill-rule:nonzero;stroke:none"
         d="m 2941.24,1510.18 h -266.55 c 29.14,-145.94 73.74,-370.57 74.9,-384.64 1.89,-22.7 32.01,-209.239 52.94,-345.661 h 98.04 l -0.13,345.661 40.8,384.64" /><path
         id="path164"
         style="fill:#e2bcab;fill-opacity:1;fill-rule:nonzero;stroke:none"
         d="m 2788.73,824.102 29.71,-191.942 c 0,0 33.45,-33.719 82.2,-24.25 l 3.15,216.192 c 0,0 -17.56,-10.961 -63.48,-8.403 -29.93,1.672 -51.58,8.403 -51.58,8.403" /><path
         id="path166"
         style="fill:#f09a7f;fill-opacity:1;fill-rule:nonzero;stroke:none"
         d="m 2537.5,1194.14 -37.51,211.06 h -212.52 c 48.44,-136.57 88.85,-249.51 94.91,-263.55 10.02,-23.07 114.49,-225.611 187.37,-369.65 l 98.76,33.41 -131.01,388.73" /><path
         id="path168"
         style="fill:#0f202c;fill-opacity:1;fill-rule:nonzero;stroke:none"
         d="m 2753.78,585.871 c -15.8,30.688 -41.56,36.801 -64.18,29.149 -57.99,-19.61 -124.54,-27.379 -145.73,-41.329 -55.66,-36.64 30.99,-89.32 194.56,-55.16 21.59,4.5 31.15,36.629 15.35,67.34" /><path
         id="path170"
         style="fill:#e2bcab;fill-opacity:1;fill-rule:nonzero;stroke:none"
         d="m 2549.71,788.191 97.31,-187.062 c 0,0 46.17,-23.02 92.98,3.691 l -71.99,223.391 c 0,0 -14.23,-17.371 -62.37,-30.711 -31.32,-8.68 -55.93,-9.309 -55.93,-9.309" /><path
         id="path172"
         style="fill:#d7c7bd;fill-opacity:1;fill-rule:nonzero;stroke:none"
         d="M 3334.65,1180.83 V 376.582 c 0,0 -0.29,-9.363 -23.16,-9.852 -22.87,-0.488 -28.38,9.852 -28.38,9.852 v 798.538 l 51.54,5.71" /><path
         id="path174"
         style="fill:#d7c7bd;fill-opacity:1;fill-rule:nonzero;stroke:none"
         d="m 2634.42,1101.46 38.98,4.29 V 300.73 c 0,0 -0.28,-9.359 -23.14,-9.859 -22.88,-0.48 -28.38,9.859 -28.38,9.859 v 805.4 l 12.54,-4.67" /><path
         id="path176"
         style="fill:#bfb0a8;fill-opacity:1;fill-rule:nonzero;stroke:none"
         d="M 3021.16,1146.17 V 497.922 c 0,0 -0.26,-9.371 -23.11,-9.883 -22.87,-0.48 -28.38,9.883 -28.38,9.883 v 642.558 l 51.49,5.69" /><path
         id="path178"
         style="fill:#bfb0a8;fill-opacity:1;fill-rule:nonzero;stroke:none"
         d="M 2359.93,1203.94 V 422.051 c 0,0 -0.26,-9.36 -23.13,-9.852 -22.84,-0.48 -28.38,9.852 -28.38,9.852 v 801.129 l 51.51,-19.24" /><path
         id="path180"
         style="fill:#c16c5e;fill-opacity:1;fill-rule:nonzero;stroke:none"
         d="m 3415.9,1211.63 v -52.01 l -781.48,-88.37 v 52.01 l 781.48,88.37" /><path
         id="path182"
         style="fill:#af6255;fill-opacity:1;fill-rule:nonzero;stroke:none"
         d="m 3060.41,1344.36 355.49,-132.73 -781.48,-88.37 -355.48,132.73 781.47,88.37" /><path
         id="path184"
         style="fill:#935146;fill-opacity:1;fill-rule:nonzero;stroke:none"
         d="m 2278.94,1255.99 v -51.98 l 355.48,-132.76 v 52.01 l -355.48,132.73" /><path
         id="path186"
         style="fill:#f09a7f;fill-opacity:1;fill-rule:nonzero;stroke:none"
         d="m 3104.06,2296.25 c -63.36,22.6 -52.82,162.22 -52.82,162.22 l -147.16,-24 c 0,0 10.53,-115.62 -52.8,-138.22 -6.07,-2.17 -78.62,-103.13 52.8,-103.13 131.44,0 204.6,101.47 199.98,103.13" /><g
         id="g188"><g
           clip-path="url(#clipPath194)"
           id="g190"><path
             id="path196"
             style="fill:#d96049;fill-opacity:1;fill-rule:nonzero;stroke:none"
             d="m 3000.1,2297.07 h 94.7188 v 54.0391 H 3000.1 Z" /></g></g><path
         id="path198"
         style="fill:#f09a7f;fill-opacity:1;fill-rule:nonzero;stroke:none"
         d="m 3248.37,1770.72 -28.93,339.04 -123.17,-4.87 c 17.33,-102.7 -20.58,-499.16 -11.32,-555.36 39.77,-51.19 162.49,173.09 163.42,221.19" /><path
         id="path200"
         style="fill:#9697ab;fill-opacity:1;fill-rule:nonzero;stroke:none"
         d="m 3092.66,1970.33 165.4,21.3 c -15.27,32.67 -16.65,71.2 -18.35,88.49 -14.25,143.94 -39.53,215.17 -119.87,203.12 -80.36,-11.99 -35.41,-245.76 -35.41,-245.76 l 8.23,-67.15" /><path
         id="path202"
         style="fill:#a9abc1;fill-opacity:1;fill-rule:nonzero;stroke:none"
         d="m 3154.58,1668.46 c 0,0 44.34,597.76 -7.12,613.86 -16.11,5.07 -38.59,7.72 -55.88,13.93 H 2838.8 c 0,0 -41.51,-4.32 -56.46,-24.05 -56.95,-75.22 -28.98,-294.89 -36.08,-603.74 0,0 14.93,-81.53 174.07,-81.53 159.08,0 234.25,81.53 234.25,81.53" /><path
         id="path204"
         style="fill:#f09a7f;fill-opacity:1;fill-rule:nonzero;stroke:none"
         d="m 2607.18,1742.94 66.43,299.04 121.42,-21.23 c -30.82,-99.49 -59.33,-264.96 -87.52,-330.25 -46.21,-45.43 -105.83,4.66 -100.33,52.44" /><path
         id="path206"
         style="fill:#f09a7f;fill-opacity:1;fill-rule:nonzero;stroke:none"
         d="m 2423.77,1509.12 c 4.36,-2.43 10.65,-4.12 15.03,-6.52 20.72,-11.4 45.41,-15.99 68.49,-20 51.64,-8.93 291.03,-8.15 342.05,-27.12 82.03,-30.52 -81.29,-96.55 4.11,-94.36 l -118.34,-155 c 0,0 -405.11,-11.41 -442.93,156.84 -6.53,29.04 -7.77,61.29 7.09,88.08 12.26,22.14 33.77,36.68 56.88,45.75 22.87,8.96 46.23,24.28 67.62,12.33" /><path
         id="path208"
         style="fill:#f09a7f;fill-opacity:1;fill-rule:nonzero;stroke:none"
         d="m 2639,1751.81 c -32.79,14.66 -176.94,121.01 -268.57,153.23 -5.76,1.6 -29.83,-0.27 -40.95,3.49 -34.27,11.71 -26.25,17.06 -77.52,4.24 -39.74,-9.94 -44.17,32.07 13.99,51.28 32.57,10.78 81.42,1.19 104,-4.67 102.75,-15.36 342.95,-114.83 369.84,-141.96 37.89,-38.22 -27.8,-98.23 -100.79,-65.61" /><path
         id="path210"
         style="fill:#f09a7f;fill-opacity:1;fill-rule:nonzero;stroke:none"
         d="m 2808.55,1223.5 c 0,0 363.18,97.21 338.47,273.63 -24.66,176.42 -214.29,86.77 -299.75,55.29 -85.49,-31.46 -405.45,-159.21 -405.45,-159.21 l 366.73,-169.71" /><path
         id="path212"
         style="fill:#1a394c;fill-opacity:1;fill-rule:nonzero;stroke:none"
         d="m 2378.53,1317.58 c -14.55,23.67 -9.69,86.16 16.39,118.67 56.47,-19.74 319.98,48.76 353.65,177.94 26.77,-0.48 32,-0.94 58.81,-1.43 -27.37,-159.45 -336.04,-226.52 -428.85,-295.18" /><path
         id="path214"
         style="fill:#1a394c;fill-opacity:1;fill-rule:nonzero;stroke:none"
         d="m 3161.34,1246.91 c -21.77,-11.14 -90.91,-36.13 -148.01,-49.77 -10.22,85.21 42.41,112.09 60.51,410.99 29.25,-0.5 54.29,6.12 83.53,5.65 33.55,-163.59 104.58,-219.67 3.97,-366.87" /><path
         id="path216"
         style="fill:#1a394c;fill-opacity:1;fill-rule:nonzero;stroke:none"
         d="m 2652.37,1188.53 c -41.51,-15.48 -173.06,20.43 -214.31,58.38 102.62,76.49 374.84,229.49 411.67,365.15 6.61,24.36 52.43,-0.92 78.6,-1.41 -27.54,-266.63 -99.96,-291.74 -275.96,-422.12" /><path
         id="path218"
         style="fill:#1a394c;fill-opacity:1;fill-rule:nonzero;stroke:none"
         d="m 2798.66,1163.39 c -21.82,0.68 -107.31,6.03 -127.55,15.4 178.21,131.95 253.85,161.07 281.78,431.43 26.21,-0.47 52.42,-0.9 78.61,-1.38 -16.74,-273.4 -68.98,-303.77 -232.84,-445.45" /><path
         id="path220"
         style="fill:#26536d;fill-opacity:1;fill-rule:nonzero;stroke:none"
         d="m 2712.24,1163.39 c -7.13,0 -115.23,6.16 -141.48,28.11 128.69,92.16 332.88,231.53 318.47,416.31 22.82,-0.36 66.51,2.36 89.35,1.99 -22.41,-267.63 -94.44,-306.22 -266.34,-446.41" /><path
         id="path222"
         style="fill:#26536d;fill-opacity:1;fill-rule:nonzero;stroke:none"
         d="m 2438.06,1246.91 c -73.04,30.59 -81.95,83.42 -74.7,123.47 194.24,16.08 415.62,127.62 421.72,242.8 1.62,31.06 44.03,-5.84 76.94,-6.4 -20.98,-157.49 -205.57,-336.38 -423.96,-359.87" /><path
         id="path224"
         style="fill:#26536d;fill-opacity:1;fill-rule:nonzero;stroke:none"
         d="m 3051.69,1197.14 c -62.79,-14.14 -190.15,-43.46 -253.03,-33.75 175.73,151.12 185.9,168.17 204.2,445.98 31.09,-0.53 86.2,26.36 93.28,-1.63 47.97,-190.04 77.63,-294.99 -44.45,-410.6" /><path
         id="path226"
         style="fill:#26536d;fill-opacity:1;fill-rule:nonzero;stroke:none"
         d="m 2396.14,1414.07 c -0.47,33.09 66.19,107.67 97.67,116.84 133.43,-71.8 235.39,22.78 248.59,64.15 3.79,11.83 9.54,16.16 22.12,14.64 -10.09,-100.33 -180.18,-205.96 -368.38,-195.63" /><path
         id="path228"
         style="fill:#2f6a8a;fill-opacity:1;fill-rule:nonzero;stroke:none"
         d="m 3161.34,1587.18 c 0,0 -69.35,-67.33 -267.53,-54.71 -134.42,8.55 -158.11,54.46 -158.11,54.46 l 10.56,81.53 c 0,0 20.02,-34.72 158.7,-45.83 167.58,-13.43 250.82,45.83 250.82,45.83 l 5.56,-81.28" /><path
         id="path230"
         style="fill:#b7bad2;fill-opacity:1;fill-rule:nonzero;stroke:none"
         d="m 2643.08,1985.51 170.6,-38.23 c 0,0 11.16,89.07 14.52,102.87 34.03,140.6 56.03,218.25 -30.95,226.2 -97.92,8.94 -129.53,-209.56 -129.53,-209.56 0,0 -8.11,-55.78 -24.64,-81.28" /><path
         id="path232"
         style="fill:#c16c5e;fill-opacity:1;fill-rule:nonzero;stroke:none"
         d="m 3410.07,1985.02 v -443.24 l -781.46,-88.37 v 443.24 c 0,0 31.06,169.76 393.4,210.29 362.35,40.53 388.06,-121.92 388.06,-121.92" /><path
         id="path234"
         style="fill:#935146;fill-opacity:1;fill-rule:nonzero;stroke:none"
         d="m 2606.31,1907.15 v -443.24 l 22.3,-10.5 v 443.24 l -22.3,10.5" /><path
         id="path236"
         style="fill:#bfb0a8;fill-opacity:1;fill-rule:nonzero;stroke:none"
         d="m 3369.79,1537.31 v -329.7 l -51.5,-5.71 v 329.73 l 51.5,5.68" /><path
         id="path238"
         style="fill:#bfb0a8;fill-opacity:1;fill-rule:nonzero;stroke:none"
         d="m 2708.55,1462.24 v -329.71 l -51.51,-5.71 v 329.72 l 51.51,5.7" /><path
         id="path240"
         style="fill:#af6255;fill-opacity:1;fill-rule:nonzero;stroke:none"
         d="m 2999.7,2124.88 c 210.7,23.58 307.48,-21.48 351.67,-63.33 -51.88,35.37 -148.82,65.59 -329.36,45.39 -362.34,-40.53 -393.42,-210.29 -393.42,-210.29 l -22.28,10.5 v 7.45 c 0,0 31.04,169.76 393.39,210.28" /><path
         id="path242"
         style="fill:#f36658;fill-opacity:1;fill-rule:nonzero;stroke:none"
         d="m 2356.65,2687.19 c 0,0 41.12,-19.81 107.89,-8.52 214.46,36.2 212.3,193.87 387.05,256.26 169.63,60.62 248.7,-61.5 248.7,-61.5 0,0 147.62,5.69 152.47,-153.46 4.7,-154.19 8.02,-171.41 42.31,-270.56 -37.41,-25.57 -134.89,-66.85 -176.91,-81.19 3.6,13.53 6.53,33.9 2.54,40.24 0,0 -3.28,-17.98 -12.95,-43.82 -21,-7.01 -42.55,-12.81 -64.4,-17.73 -93.64,-26.27 -286.99,11.93 -301.74,17.52 -1.71,0.67 -127.88,40.68 -219.48,114.08 -39.41,31.6 -67.63,65.51 -95.25,106.46 -7.7,11.43 -15.57,22.71 -23.34,34.06 10.91,4.79 17.07,7.18 17.07,7.18 -5.87,-1.37 -12.54,-2.6 -19.53,-3.66 -14.89,21.5 -29.81,43.01 -44.43,64.64" /><path
         id="path244"
         style="fill:#bb4d42;fill-opacity:1;fill-rule:nonzero;stroke:none"
         d="m 3101.87,2698.01 c 0,0 -39.27,36.65 -45.82,62.04 -15.85,-20.84 -136.35,-62.04 -136.35,-62.04 48.7,22.09 108.3,52.92 124.1,77.83 23.32,36.61 43.36,74.75 53.36,92.17 -12.89,-23.15 -47.78,-97.53 -11.01,-146.71 5.41,-7.23 10.7,-14.98 15.72,-23.29" /><path
         id="path246"
         style="fill:#bb4d42;fill-opacity:1;fill-rule:nonzero;stroke:none"
         d="m 3097.16,2868.01 c 1.94,3.45 3.13,5.42 3.13,5.42 0,0 -1.15,-2 -3.13,-5.42" /><path
         id="path248"
         style="fill:#c3c2c3;fill-opacity:1;fill-rule:nonzero;stroke:none"
         d="m 2712.77,2374.73 -1.92,0.66 c 0,0.02 0.01,0.04 0.01,0.07 0.65,-0.25 1.28,-0.49 1.91,-0.73" /><path
         id="path250"
         style="fill:#bb4d42;fill-opacity:1;fill-rule:nonzero;stroke:none"
         d="m 2737.23,2366.33 -24.46,8.4 c -0.63,0.24 -1.26,0.48 -1.91,0.73 6.59,36.61 89.71,174.49 89.71,174.49 -41.19,-91.83 -50.43,-130.67 -63.34,-183.62" /><path
         id="path252"
         style="fill:#bb4d42;fill-opacity:1;fill-rule:nonzero;stroke:none"
         d="m 2715.96,2802.36 c 0,0 71.22,109.25 168.78,109.25 0.11,0 0.22,0 0.34,0 50.62,-0.11 51.29,-31.4 51.29,-31.4 0,0 -15.89,7.46 -43.94,7.46 -18.92,0 -43.38,-3.39 -72.23,-14.77 -49.46,-19.51 -104.24,-70.54 -104.24,-70.54" /><path
         id="path254"
         style="fill:#c3c2c3;fill-opacity:1;fill-rule:nonzero;stroke:none"
         d="m 2455.86,2542.99 c -6.97,9.39 -13.58,19.11 -20.25,29 0.06,0.03 0.12,0.05 0.18,0.07 6.97,-9.88 14.05,-19.36 21.4,-28.5 -0.44,-0.19 -0.89,-0.38 -1.33,-0.57" /><path
         id="path256"
         style="fill:#bb4d42;fill-opacity:1;fill-rule:nonzero;stroke:none"
         d="m 2457.19,2543.56 c -7.35,9.14 -14.43,18.62 -21.4,28.5 100.25,35.29 190.82,81.42 190.82,81.42 0,0 -86.5,-73.79 -169.42,-109.92" /></g></g></svg>