<?xml version="1.0" encoding="UTF-8" standalone="no"?>
<svg
   xmlns:dc="http://purl.org/dc/elements/1.1/"
   xmlns:cc="http://creativecommons.org/ns#"
   xmlns:rdf="http://www.w3.org/1999/02/22-rdf-syntax-ns#"
   xmlns:svg="http://www.w3.org/2000/svg"
   xmlns="http://www.w3.org/2000/svg"
   viewBox="0 0 2829.3333 2829.3333"
   height="2829.3333"
   width="2829.3333"
   xml:space="preserve"
   id="svg2"
   version="1.1"><metadata
     id="metadata8"><rdf:RDF><cc:Work
         rdf:about=""><dc:format>image/svg+xml</dc:format><dc:type
           rdf:resource="http://purl.org/dc/dcmitype/StillImage" /></cc:Work></rdf:RDF></metadata><defs
     id="defs6" /><g
     transform="matrix(1.3333333,0,0,-1.3333333,0,2829.3333)"
     id="g10"><g
       transform="scale(0.1)"
       id="g12"><path
         id="path14"
         style="fill:#ae483d;fill-opacity:1;fill-rule:nonzero;stroke:none"
         d="m 10039.1,15524 c -170.35,50.4 -354.61,65.7 -555.77,32.8 -1902.55,-312.2 -2690.94,-3067.3 -2758.52,-3437.2 416.32,-235.4 847.98,-452.2 1290.47,-622.4 129.88,-49.6 1834.08,-386.1 2659.12,-154.5 l 648.4,1240.8 -1283.7,2940.5" /><path
         id="path16"
         style="fill:#f09a7f;fill-opacity:1;fill-rule:nonzero;stroke:none"
         d="m 11584.7,10371.9 c -608,217.1 -506.7,1557 -506.7,1557 l -1412.46,-230.5 c 0,0 101.1,-1109.4 -506.94,-1326.5 -58.52,-20.9 -754.44,-989.6 506.94,-989.6 1261.46,0 1963.76,973.9 1919.16,989.6" /><path
         id="path18"
         style="fill:#d35d47;fill-opacity:1;fill-rule:nonzero;stroke:none"
         d="m 11321.8,10379.9 c -138.6,0 -350.2,52.3 -598,289.2 -444,424.3 -1068.74,553.8 -1068.74,553.8 16.03,119.3 18.26,242.6 16.69,333.7 32.14,-4.4 63.99,-6.7 95.42,-6.7 378.53,0 726.33,93.2 1027.03,225.2 -64.4,-138.1 -111.1,-278 -119.8,-432.4 v 0 0 0 c 137.1,30.8 272.8,65.6 406.3,105.3 25.6,-377.4 118.3,-866.3 415.6,-1034.7 l -0.4,-0.5 c 0,0 -64.1,-32.9 -174.1,-32.9" /><path
         id="path20"
         style="fill:#f09a7f;fill-opacity:1;fill-rule:nonzero;stroke:none"
         d="m 11929.7,14987.3 c -308.5,1070.5 -1659.2,1070.5 -1659.2,1070.5 0,0 -1431.55,20.1 -1659.47,-1070.5 -478.73,-2294.5 446.82,-3437.4 1156.14,-3437.4 797.83,0 1459.63,414.3 1830.03,732.6 164.8,141.7 191.5,131.5 192.3,121.4 0.8,-9.9 -23.3,-19.9 33.9,114 115.7,270 414.5,1398.6 106.3,2469.4" /><g
         transform="scale(1.0466)"
         id="g22"><path
           id="path24"
           style="fill:#f36658;fill-opacity:1;fill-rule:nonzero;stroke:none"
           d="m 8584.58,13553.2 c 549.5,119.8 1365.07,409.9 1601.32,720.6 156.9,-605.9 701.3,-546.9 613.2,-1781.1 -54.5,-761.4 -569.7,-1116.2 -600,-1655 184.1,41.3 365.7,90.3 542.5,149.2 81.5,217.7 109.2,369 109.2,369 33.7,-53.4 8.9,-224.9 -21.4,-338.8 353.9,120.9 1174.6,468.2 1489.8,683.6 -288.9,835.1 -316.9,980.1 -356.4,2278.5 -40.8,1340.4 -1283.9,1292.3 -1283.9,1292.3 0,0 -665.8,1028.5 -2094.32,518.1 -1471.68,-525.6 -1453.61,-1853.4 -3259.48,-2158 -562.2,-95.3 -908.59,71.7 -908.59,71.7 123.22,-182.3 248.64,-363.5 374.23,-544.4 58.75,9 114.84,19.3 164.56,30.9 0,0 -52.09,-20.2 -143.84,-60.6 65.4,-95.5 131.6,-190.4 196.58,-286.8 232.47,-344.8 470.17,-630.4 802.03,-896.5 798.51,-639.9 1811.41,-944.7 1811.41,-944.7 109.17,445.5 242.68,1060.3 323.81,1575.5 133.09,848.8 455.42,1054.9 455.42,1054.9 l 448.56,254.9 c -55.21,-169.8 -264.69,-333.3 -264.69,-333.3" /></g><path
         id="path26"
         style="fill:#bb4d42;fill-opacity:1;fill-rule:nonzero;stroke:none"
         d="m 10674.4,11342.7 c 31.7,563.9 570.9,935.2 627.9,1732.1 6.9,95.9 10,184.3 10,266.1 -0.1,1020.3 -499.7,1011 -651.7,1598.1 -247.3,-325.2 -1100.88,-628.8 -1675.98,-754.2 0,0 1447.98,551.2 1693.88,938.3 205.7,322.6 382.3,658.8 470.3,812.3 -113.6,-203.9 -420.9,-859.7 -96.8,-1293 372.3,-498.5 694.9,-1282.2 161.9,-2385.6 -118.6,-244.3 -267.9,-648 -324.3,-861.8 -71.1,-18.4 -143.1,-36 -215.2,-52.3 v 0" /><path
         id="path28"
         style="fill:#bb4d42;fill-opacity:1;fill-rule:nonzero;stroke:none"
         d="m 11148.8,15935.4 c 17.2,30.6 27.7,47.8 27.7,47.8 0,0 -10.1,-17.7 -27.7,-47.8" /><path
         id="path30"
         style="fill:#88372e;fill-opacity:1;fill-rule:nonzero;stroke:none"
         d="m 8283.72,12970.3 c 11.26,65.3 21.92,129.6 31.82,192.4 41.6,265.4 100.9,470.8 163.58,628.3 v 0 c -62.68,-157.5 -121.98,-362.9 -163.58,-628.3 -9.9,-62.9 -20.55,-127.1 -31.82,-192.4" /><path
         id="path32"
         style="fill:#bb4d42;fill-opacity:1;fill-rule:nonzero;stroke:none"
         d="m 7976.64,11513.8 v 0 c -5.7,2.3 -10.57,4.1 -15.54,6.8 57.1,321.8 156.1,911.7 215.74,1458.6 87.69,804.5 297.92,1145.4 615.34,1287.6 0,0 -165.9,-106 -313.06,-475.8 -62.68,-157.5 -121.98,-362.9 -163.58,-628.3 -9.9,-62.8 -20.56,-127.1 -31.82,-192.4 -85.42,-494.6 -206.54,-1044.2 -307.08,-1456.5 v 0" /><g
         transform="scale(1.00153)"
         id="g34"><path
           id="path36"
           style="fill:#bb4d42;fill-opacity:1;fill-rule:nonzero;stroke:none"
           d="m 7625.99,15373.5 c 0,0 275.87,387 608.08,479.1 310.16,86.3 556.7,447.4 949.59,447.4 26.63,0 53.86,-1.7 81.9,-5.2 442.15,-55.3 451.34,-276.3 451.34,-276.3 0,0 -139.93,65.7 -386.88,65.7 -166.55,0 -381.74,-29.9 -635.61,-129.9 -435.19,-171.7 -819.59,-562.2 -1068.42,-580.8" /></g><path
         id="path38"
         style="fill:#c3c2c3;fill-opacity:1;fill-rule:nonzero;stroke:none"
         d="m 5496.96,13070.9 c -61.78,82.8 -119.95,168.3 -178.76,255.6 0.54,0.2 1.05,0.4 1.59,0.6 61.46,-87.1 123.85,-170.6 188.71,-251.2 -3.86,-1.7 -7.69,-3.3 -11.54,-5" /><path
         id="path40"
         style="fill:#bb4d42;fill-opacity:1;fill-rule:nonzero;stroke:none"
         d="m 5508.5,13075.9 c -64.86,80.6 -127.25,164.1 -188.71,251.2 883.54,310.8 1681.8,717.7 1681.8,717.7 0,0 -762.61,-650.5 -1493.09,-968.9" /><path
         id="path42"
         style="fill:#f1eeee;fill-opacity:1;fill-rule:nonzero;stroke:none"
         d="m 9123.08,12409.9 c 93.59,-285.1 341.93,-490.7 637.46,-490.7 295.06,0 543.36,205.6 636.96,490.7 H 9123.08" /><path
         id="path44"
         style="fill:#391f1c;fill-opacity:1;fill-rule:nonzero;stroke:none"
         d="m 9058.39,13766.7 0.62,-0.2 0.33,-0.2 0.31,-0.1 0.45,-0.2 0.79,-0.3 1.41,-0.5 c 0.46,-0.1 0.98,-0.3 2.3,-0.7 0.7,-0.2 1.55,-0.5 3.27,-0.9 0.89,-0.2 1.99,-0.4 3.77,-0.7 1.88,-0.3 4.14,-0.7 9.28,-0.8 23.3,0 44.31,14.1 53.22,35.6 8.92,21.5 3.99,46.3 -12.49,62.8 v 0 c -5.42,5.4 -11.94,9.7 -19.04,12.6 h -0.01 l -21.68,-53.4 24.87,52 c -0.98,0.5 -1.28,0.6 -1.57,0.7 -0.94,0.4 -0.93,0.4 -1.13,0.5 l -0.66,0.3 c -1.75,0.7 -5.94,2.3 -12.72,4.5 -20.22,6.6 -62.13,18 -115.82,18.1 -42.11,0 -91.91,-7.3 -142.04,-31.1 -25.02,-11.8 -49.98,-27.8 -73.61,-48.6 -23.65,-20.7 -45.95,-46.1 -66.02,-76.6 -17.49,-26.6 -10.13,-62.3 16.45,-79.8 26.57,-17.5 62.29,-10.1 79.78,16.4 14.76,22.4 30.18,39.8 45.74,53.4 23.35,20.4 47.1,32.8 70.75,40.6 23.61,7.7 47.22,10.5 68.95,10.5 25.06,0 47.47,-3.8 63.07,-7.6 7.8,-1.9 13.89,-3.8 17.77,-5 1.93,-0.7 3.32,-1.2 4.08,-1.5 l 0.65,-0.2 3.21,8.2 -3.28,-8.2 h 0.07 l 3.21,8.2 -3.28,-8.2 14.45,36.1 -14.65,-36 0.2,-0.1 14.45,36.1 -14.65,-36 19.91,49 -20.19,-48.9 0.28,-0.1 19.91,49 -20.19,-48.9 21.7,52.5 -22.16,-52.3 0.46,-0.2 21.7,52.5 -22.16,-52.3 22.43,52.9 -23.25,-52.5 0.82,-0.4 22.43,52.9 -23.25,-52.5 23.29,52.6 -24.87,-51.9 c 0.99,-0.5 1.28,-0.6 1.58,-0.7 l 23.29,52.6 -24.87,-51.9 3.2,-1.4 20.77,51.1 -20.79,-51.1 h 0.02 l 20.77,51.1 -20.79,-51.1 21.69,53.3 -40.73,-40.7 40.73,40.7 v 57.6 -57.6 l 9.28,56.9 c -1.87,0.3 -4.13,0.7 -9.28,0.7 v -57.6 l 9.28,56.9 -9.28,-56.9 15.07,55.6 c -1.11,0.3 -2.32,0.7 -5.79,1.3 l -9.28,-56.9 15.07,55.6 -15.07,-55.6 18.25,54.7 c -0.6,0.2 -1.21,0.4 -3.18,0.9 l -15.07,-55.6 18.25,54.7 -18.25,-54.7 19.91,54.1 c -0.31,0.1 -0.62,0.2 -1.66,0.6 l -18.25,-54.7 19.91,54.1 -19.87,-53.9 21.04,53.5 c -0.2,0 -0.19,0 -1.17,0.4 l -19.87,-53.9 21.04,53.5 -19.97,-50.8 20.51,50.5 -0.54,0.3 -19.97,-50.8 20.51,50.5 -10.43,-25.7 10.7,25.6 -0.27,0.1 -10.43,-25.7 10.7,25.6 c -29.36,12.3 -63.1,-1.6 -75.36,-30.9 -12.27,-29.4 1.59,-63.1 30.94,-75.4" /><path
         id="path46"
         style="fill:#26130f;fill-opacity:1;fill-rule:nonzero;stroke:none"
         d="m 8998.89,13574.9 c -76.73,0 -139.29,-62.5 -139.29,-139.5 0,-77 62.56,-139 139.29,-139 76.59,0 139.3,62 139.3,139 0,77 -62.71,139.5 -139.3,139.5" /><path
         id="path48"
         style="fill:#26130f;fill-opacity:1;fill-rule:nonzero;stroke:none"
         d="m 10536.6,13574.9 c -76.7,0 -139.1,-62.5 -139.1,-139.5 0,-77 62.4,-139 139.1,-139 76.7,0 139.3,62 139.3,139 0,77 -62.6,139.5 -139.3,139.5" /><path
         id="path50"
         style="fill:#391f1c;fill-opacity:1;fill-rule:nonzero;stroke:none"
         d="m 10477.4,13766.8 -15.1,35.9 14.8,-36 0.3,0.1 -15.1,35.9 14.8,-36 -1.5,3.7 1.5,-3.8 v 0.1 l -1.5,3.7 1.5,-3.8 c 0.9,0.5 38.6,15 85.6,14.8 28.7,0 60.3,-5 91.5,-20 15.6,-7.5 31.2,-17.6 46.8,-31.3 15.5,-13.8 31,-31.3 45.8,-53.9 17.5,-26.6 53.2,-34 79.8,-16.6 26.6,17.5 34,53.2 16.5,79.8 -20,30.6 -42.2,56.1 -65.7,76.9 -35.3,31.3 -73.5,51.8 -110.5,64 -37,12.2 -72.6,16.3 -104.2,16.3 -36.9,0 -68.3,-5.6 -91,-11.3 -22.7,-5.6 -36.7,-11.4 -38.9,-12.3 -29.3,-12.3 -43.1,-46.1 -30.8,-75.4 12.3,-29.4 46.1,-43.2 75.4,-30.8" /><path
         id="path52"
         style="fill:#ca826a;fill-opacity:1;fill-rule:nonzero;stroke:none"
         d="m 9686.63,12669.2 c -76.42,0 -126.65,15.4 -158.95,33.8 -32.38,18.3 -45.5,39.6 -48.44,45.7 -10.17,20.4 -1.93,45.1 18.4,55.3 5.92,2.9 12.2,4.3 18.39,4.3 14.36,0 28.22,-7.5 35.75,-20.7 l 0.15,-0.2 1.12,-1.3 c 2.09,-2.2 6.63,-6.6 15.41,-11.6 17.46,-9.9 52.58,-22.9 118.42,-23 0.02,0 0.03,0 0.05,0 53.94,0 85.68,8.9 103.17,17.1 16.1,7.6 20.75,14.1 21.71,15.4 6.75,15.1 21.68,24.3 37.55,24.3 4.58,0 9.25,-0.7 13.81,-2.4 21.42,-7.6 32.6,-31.1 24.98,-52.6 -1.86,-5.3 -8.46,-19.7 -25.1,-34.7 -16.58,-15 -42.64,-30.1 -81.04,-39.4 -25.64,-6.2 -56.83,-10 -95.13,-10 -0.09,0 -0.16,0 -0.25,0 m 145.66,104 v 0 m 0,0 v 0" /><path
         id="path54"
         style="fill:#f09a7f;fill-opacity:1;fill-rule:nonzero;stroke:none"
         d="m 11271.3,13252.7 c 24.5,-43.6 61.1,-81.5 108.1,-108.1 136.1,-77.3 309.8,-29.6 387.1,106.8 76.9,136.6 29.1,310.1 -107.2,387.6 -58.2,32.7 -277.6,129 -391.9,-104.5" /><path
         id="path56"
         style="fill:#a9abc1;fill-opacity:1;fill-rule:nonzero;stroke:none"
         d="m 8279.54,4857.6 h 3937.66 c 92.5,1409 307.4,5254.6 -95.3,5380.5 -155,48.6 -370.3,74.3 -536.5,133.8 0,0 -865.4,-695.3 -1777.5,-695.3 -912.49,0 -648.57,695.3 -648.57,695.3 0,0 -398.73,-41.4 -541.87,-230.7 -514.58,-679.8 -306.79,-2588.7 -337.92,-5283.6" /><path
         id="path58"
         style="fill:#e39278;fill-opacity:1;fill-rule:nonzero;stroke:none"
         d="m 6578.21,5573.4 c 409.84,62.3 1537.48,1479.9 1702.83,2524.3 h -910.63 c 0,0 -705.23,-1305.8 -1043.89,-1731.2 -138.56,-174 -158.44,-855.5 251.69,-793.1" /><path
         id="path60"
         style="fill:#9697ab;fill-opacity:1;fill-rule:nonzero;stroke:none"
         d="m 6878.48,7547.7 1592.09,-530.6 c 0,0 193.08,840 238.24,968.6 461.05,1309.7 311.47,2101.3 -76.64,2189.9 C 7712.23,10385.2 7192.24,8300 7192.24,8300 c 0,0 -131.16,-525.1 -313.76,-752.3" /><path
         id="path62"
         style="fill:#e39278;fill-opacity:1;fill-rule:nonzero;stroke:none"
         d="m 12492.8,5197.9 c 493.7,633.2 330.7,2173.8 325.5,3070.7 l -1013.3,-526.7 3.9,-1881.5 c 0,0 276.7,-1184.7 683.9,-662.5" /><path
         id="path64"
         style="fill:#b7bad2;fill-opacity:1;fill-rule:nonzero;stroke:none"
         d="m 11654.2,7212.9 1587.9,204.2 c -146.9,313.7 -159.9,683.3 -176.2,849.3 -136.9,1381.6 -379.6,2065.3 -1150.9,1949.7 -770.9,-115.1 -339.4,-2358.8 -339.4,-2358.8 l 78.6,-644.4" /><path
         id="path66"
         style="fill:#f09a7f;fill-opacity:1;fill-rule:nonzero;stroke:none"
         d="m 5060.61,9495.5 c 0,0 440.09,110.9 454.96,-127.3 43.65,-703.4 -55.79,-1099.6 -55.79,-1099.6 L 6516.04,6834.3 c 0,0 655.69,-799.4 219.24,-1179.3 -436.43,-380 -1223.76,546.2 -1808.55,2668.9 0,0 -422.36,869.1 133.88,1171.6" /><path
         id="path68"
         style="fill:#49969d;fill-opacity:1;fill-rule:nonzero;stroke:none"
         d="m 6000.97,10035.5 c -904.6,674.8 -2257.52,462.6 -2257.52,462.6 L 6030.88,7874.8 c 0,0 981.04,140.8 2287.44,-703.5 l -2317.35,2864.2" /><path
         id="path70"
         style="fill:#61cbd1;fill-opacity:1;fill-rule:nonzero;stroke:none"
         d="m 6677.07,10014 c 0,0 1418.94,816.8 3141.84,185.1 L 12043.9,6963.2 c 0,0 -2749.17,997.7 -3079.26,208.1 L 6677.07,10014" /><path
         id="path72"
         style="fill:#3d7d83;fill-opacity:1;fill-rule:nonzero;stroke:none"
         d="m 6000.97,10035.5 29.91,89.7 c -904.25,674.9 -2287.43,484.1 -2287.43,484.1 v -111.2 c 0,0 1352.92,212.2 2257.52,-462.6" /><path
         id="path74"
         style="fill:#4a989e;fill-opacity:1;fill-rule:nonzero;stroke:none"
         d="m 9818.91,10310.5 v -111.4 L 12043.9,6963.2 v 111.1 l -2224.99,3236.2" /><path
         id="path76"
         style="fill:#57b5bb;fill-opacity:1;fill-rule:nonzero;stroke:none"
         d="m 9818.91,10310.5 c -1722.9,631.8 -3141.84,-185.3 -3141.84,-185.3 V 10014 c 0,0 1418.94,816.8 3141.84,185.1 v 111.4" /><path
         id="path78"
         style="fill:#57b5bb;fill-opacity:1;fill-rule:nonzero;stroke:none"
         d="m 6000.97,10035.5 c 0,0 448.71,-269.7 676.1,-21.5 L 8964.64,7171.3 c 0,0 -172.76,-218.1 -646.32,0 l -2317.35,2864.2" /><path
         id="path80"
         style="fill:#4a989e;fill-opacity:1;fill-rule:nonzero;stroke:none"
         d="m 6000.97,10035.5 c 0,0 448.42,-269.4 676.05,-21.7 l 0.58,108.7 c -229.18,-246.4 -646.72,2.7 -646.72,2.7 l -29.91,-87.3 v -2.4" /><path
         id="path82"
         style="fill:#bfc0b3;fill-opacity:1;fill-rule:nonzero;stroke:none"
         d="m 6029.52,10698.3 c 190.01,-256.1 267.04,-530.8 294.76,-666.2 30.5,39.8 72.01,91 125.65,149 l -420.41,517.2" /><path
         id="path84"
         style="fill:#d6d8c9;fill-opacity:1;fill-rule:nonzero;stroke:none"
         d="m 6677.07,10122.1 v 3.1 c 0,0 1353.8,775.2 3021.21,223.7 l -117.71,180.6 c -1969.04,980.6 -3021.46,-184.8 -3262.82,-505.8 122.14,-20.2 258.27,-9.7 359.32,98.4" /><path
         id="path86"
         style="fill:#cdcec0;fill-opacity:1;fill-rule:nonzero;stroke:none"
         d="m 3805.28,10616.2 c 6.67,0.6 17.63,1.5 32.64,2.7 322.29,28.7 1427.47,77.4 2192.96,-493.7 0,0 136.62,-78.9 295.64,-102.7 -63.58,320.4 -415.49,1533.4 -2059.42,1158.4 l 14.71,-152.8 c 0,0 -160.09,-15 -304.21,-87 l -9.84,-131.1 c 0,0 -118.78,-39.6 -172.86,-111.7 v -83.2 c 0,0 4.48,0.5 6.92,0.8 1.46,0.1 2.14,0.1 3.46,0.3" /><path
         id="path88"
         style="fill:#f09a7f;fill-opacity:1;fill-rule:nonzero;stroke:none"
         d="M 12215.4,6303.6 C 11209,6912 10548.7,7415.5 10313.1,7721.5 c -269.4,349.8 -256.9,323.1 -504.71,523.3 -247.7,200.2 -405.41,101.5 -330.42,5.9 91.49,-116.6 172.81,-170.2 194.44,-212.5 -142.7,100 -413.3,230.4 -566.09,260.9 -276.73,55.6 -553.66,-132.3 -407.15,-381.7 494.07,-843.7 1114.09,-626 1227.9,-713.6 1087.83,-1772.2 2102.13,-2383.4 2478.43,-2100.5 316.7,237.8 195.7,967.4 -190.1,1200.3" /><path
         id="path90"
         style="fill:#f09a7f;fill-opacity:1;fill-rule:nonzero;stroke:none"
         d="m 5459.78,8268.6 c 4.77,173.7 252.57,615 185.04,989.4 -48.04,266.7 -584.21,650.9 -757.7,-71.5" /><path
         id="path92"
         style="fill:#f03d3d;fill-opacity:1;fill-rule:nonzero;stroke:none"
         d="m 5350.84,9114.4 c 0,0 74.06,-150.1 74.06,-344.8 0,-195 -74.06,-344.8 -74.06,-344.8 H 2962.85 c 0,0 -41.03,82.6 -41.03,344.8 0,262.2 41.03,344.8 41.03,344.8 h 2387.99" /><path
         id="path94"
         style="fill:#d72d25;fill-opacity:1;fill-rule:nonzero;stroke:none"
         d="m 3449.47,8938 c 93.01,0 168.43,-75.3 168.43,-168.4 0,-92.8 -75.42,-168.4 -168.43,-168.4 -93.06,0 -168.38,75.6 -168.38,168.4 0,93.1 75.32,168.4 168.38,168.4" /><path
         id="path96"
         style="fill:#d72d25;fill-opacity:1;fill-rule:nonzero;stroke:none"
         d="m 3033.49,8769.6 c 0,-262.2 41.03,-344.8 41.03,-344.8 h 163.06 c 0,0 -40.77,82.6 -40.77,344.8 0,262.2 40.77,344.8 40.77,344.8 h -163.06 c 0,0 -41.03,-82.6 -41.03,-344.8" /><path
         id="path98"
         style="fill:#d72d25;fill-opacity:1;fill-rule:nonzero;stroke:none"
         d="m 5170.67,8769.6 c 0,-262.2 -40.68,-344.8 -40.68,-344.8 h -162.97 c 0,0 40.68,82.6 40.68,344.8 0,262.2 -40.68,344.8 -40.68,344.8 h 162.97 c 0,0 40.68,-82.6 40.68,-344.8" /><path
         id="path100"
         style="fill:#d72d25;fill-opacity:1;fill-rule:nonzero;stroke:none"
         d="m 5319.61,8769.6 c 0,-262.2 -40.63,-344.8 -40.63,-344.8 h -81.51 c 0,0 40.83,82.6 40.83,344.8 0,262.2 -40.83,344.8 -40.83,344.8 h 81.51 c 0,0 40.63,-82.6 40.63,-344.8" /><path
         id="path102"
         style="fill:#5e2590;fill-opacity:1;fill-rule:nonzero;stroke:none"
         d="m 6037.22,8424.8 c 0,0 117.17,-237.6 117.17,-546.3 0,-308 -117.17,-545.6 -117.17,-545.6 H 2256.98 c 0,0 -64.45,130.9 -64.45,545.6 0,414.7 64.45,546.3 64.45,546.3 h 3780.24" /><path
         id="path104"
         style="fill:#7041a4;fill-opacity:1;fill-rule:nonzero;stroke:none"
         d="m 2713.25,8424.8 c 0,0 -18.32,-37.1 -35.47,-134.6 -98.66,-59.4 -169.44,-221 -169.44,-411.7 0,-190.3 70.78,-351.9 169.44,-411.3 17.15,-97.2 35.47,-134.3 35.47,-134.3 h 258.17 c 0,0 -28.16,56.7 -46.96,213.6 54.66,79.6 89.4,198.7 89.4,332 0,133.3 -34.74,252.7 -89.4,332.7 18.8,156.6 46.96,213.6 46.96,213.6 h -258.17" /><path
         id="path106"
         style="fill:#7041a4;fill-opacity:1;fill-rule:nonzero;stroke:none"
         d="m 5752.2,7878.5 c 0,-414.7 -64.65,-545.6 -64.65,-545.6 h -258.27 c 0,0 64.6,130.9 64.6,545.6 0,414.7 -64.6,546.3 -64.6,546.3 h 258.27 c 0,0 64.65,-131.6 64.65,-546.3" /><path
         id="path108"
         style="fill:#7041a4;fill-opacity:1;fill-rule:nonzero;stroke:none"
         d="m 5988.01,7878.5 c 0,-414.7 -64.75,-545.6 -64.75,-545.6 h -128.92 c 0,0 64.46,130.9 64.46,545.6 0,414.7 -64.46,546.3 -64.46,546.3 h 128.92 c 0,0 64.75,-131.6 64.75,-546.3" /><path
         id="path110"
         style="fill:#fab220;fill-opacity:1;fill-rule:nonzero;stroke:none"
         d="m 6504.2,5479.5 c 0,0 99.1,-201.7 99.1,-463.9 0,-261.5 -99.1,-462.9 -99.1,-462.9 H 1798.18 c 0,0 -54.76,111 -54.76,462.9 0,352.6 54.76,463.9 54.76,463.9 H 6504.2" /><path
         id="path112"
         style="fill:#fbc444;fill-opacity:1;fill-rule:nonzero;stroke:none"
         d="m 1893.58,5015.6 c 0,-351.9 54.81,-462.9 54.81,-462.9 h 219.14 c 0,0 -54.61,111 -54.61,462.9 0,352.6 54.61,463.9 54.61,463.9 h -219.14 c 0,0 -54.81,-111.3 -54.81,-463.9" /><path
         id="path114"
         style="fill:#fbc444;fill-opacity:1;fill-rule:nonzero;stroke:none"
         d="m 6261.82,5015.6 c 0,-351.9 -54.62,-462.9 -54.62,-462.9 h -219.19 c 0,0 54.86,111 54.86,462.9 0,352.6 -54.86,463.9 -54.86,463.9 h 219.19 c 0,0 54.62,-111.3 54.62,-463.9" /><path
         id="path116"
         style="fill:#fbc444;fill-opacity:1;fill-rule:nonzero;stroke:none"
         d="m 6462.26,5015.6 c 0,-351.9 -54.81,-462.9 -54.81,-462.9 h -109.53 c 0,0 54.86,111 54.86,462.9 0,352.6 -54.86,463.9 -54.86,463.9 h 109.53 c 0,0 54.81,-111.3 54.81,-463.9" /><path
         id="path118"
         style="fill:#f57725;fill-opacity:1;fill-rule:nonzero;stroke:none"
         d="m 5755.71,7332.9 c 0,0 99.39,-201.7 99.39,-463.6 0,-261.8 -99.39,-463.6 -99.39,-463.6 H 2546.29 c 0,0 -54.81,111.4 -54.81,463.6 0,351.9 54.81,463.6 54.81,463.6 h 3209.42" /><path
         id="path120"
         style="fill:#f9a96b;fill-opacity:1;fill-rule:nonzero;stroke:none"
         d="m 2878.8,6869.3 c 0,-352.2 55.01,-463.6 55.01,-463.6 h 219 c 0,0 -54.86,111.4 -54.86,463.6 0,351.9 54.86,463.6 54.86,463.6 h -219 c 0,0 -55.01,-111.7 -55.01,-463.6" /><path
         id="path122"
         style="fill:#f9a96b;fill-opacity:1;fill-rule:nonzero;stroke:none"
         d="m 3713.73,6869.3 c 0,-352.2 54.81,-463.6 54.81,-463.6 h 1029.52 c 0,0 37.9,111.4 37.9,463.6 0,351.9 -37.9,463.6 -37.9,463.6 H 3768.54 c 0,0 -54.81,-111.7 -54.81,-463.6" /><path
         id="path124"
         style="fill:#f9a96b;fill-opacity:1;fill-rule:nonzero;stroke:none"
         d="m 2678.56,6869.3 c 0,-352.2 54.91,-463.6 54.91,-463.6 h 109.43 c 0,0 -54.86,111.4 -54.86,463.6 0,351.9 54.86,463.6 54.86,463.6 h -109.43 c 0,0 -54.91,-111.7 -54.91,-463.6" /><path
         id="path126"
         style="fill:#3a8db4;fill-opacity:1;fill-rule:nonzero;stroke:none"
         d="m 6291.98,6405.7 c 0,0 99.24,-201.7 99.24,-463.6 0,-261.8 -99.24,-463.6 -99.24,-463.6 H 2010.21 c 0,0 -54.71,111.4 -54.71,463.6 0,351.9 54.71,463.6 54.71,463.6 h 4281.77" /><path
         id="path128"
         style="fill:#66cde0;fill-opacity:1;fill-rule:nonzero;stroke:none"
         d="m 2105.66,5942.1 c 0,-352.2 54.81,-463.6 54.81,-463.6 h 219.14 c 0,0 -54.66,111.4 -54.66,463.6 0,351.9 54.66,463.6 54.66,463.6 h -219.14 c 0,0 -54.81,-111.7 -54.81,-463.6" /><path
         id="path130"
         style="fill:#2b7ea3;fill-opacity:1;fill-rule:nonzero;stroke:none"
         d="m 12223,7462.8 h -32.6 V 8670 h 32.6 c 36.3,0 65.5,29 65.5,65.5 0,36.1 368.9,65.4 332.7,65.4 H 9783.05 c -405.6,0 -734.36,-328.6 -734.36,-734.5 0,-405.9 328.76,-734.5 734.36,-734.5 h 2796.25 c 36.2,0 -290.8,29.3 -290.8,65.4 0,36.5 -29.2,65.5 -65.5,65.5" /><path
         id="path132"
         style="fill:#4cb0e5;fill-opacity:1;fill-rule:nonzero;stroke:none"
         d="m 15026,7462.8 h -2677.5 c -333.3,0 -603.7,270.3 -603.7,603.6 0,333.4 270.4,603.6 603.7,603.6 H 15026 c 36.1,0 65.4,29 65.4,65.5 0,36.1 -29.3,65.4 -65.4,65.4 h -2677.5 c -405.7,0 -734.7,-328.6 -734.7,-734.5 0,-405.9 329,-734.5 734.7,-734.5 H 15026 c 36.1,0 65.4,29.3 65.4,65.4 0,36.5 -29.3,65.5 -65.4,65.5" /><path
         id="path134"
         style="fill:#d5cecb;fill-opacity:1;fill-rule:nonzero;stroke:none"
         d="m 14993.3,8670.4 h -2486.5 c -333.4,0 -603.8,-270.6 -603.8,-604 0,-333.7 270.4,-604 603.8,-604 h 2486.5 v 1208" /><path
         id="path136"
         style="fill:#bab5ac;fill-opacity:1;fill-rule:nonzero;stroke:none"
         d="m 14993.3,7612.3 h -2573.2 c -357.4,0 -517.1,277.6 -517.1,454.1 0,333.4 270.4,604 603.8,604 h -157.6 c -333.5,0 -603.7,-270.6 -603.7,-604 0,-333.7 270.2,-604 603.7,-604 h 2644.1 v 149.9" /><path
         id="path138"
         style="fill:#988d8d;fill-opacity:1;fill-rule:nonzero;stroke:none"
         d="m 12704.9,8434.2 c 0,0 107.5,2.3 268.7,5.9 80.7,0.9 174.7,2 275.4,3.2 100.8,0.4 208.3,0.9 315.8,1.3 214.9,-0.7 429.9,-1.7 591.1,-4.5 161.2,-3.5 268.7,-5.9 268.7,-5.9 0,0 -107.5,-2.4 -268.7,-5.9 -161.2,-2.8 -376.2,-3.8 -591.1,-4.6 -107.5,0.5 -215,1 -315.8,1.4 -100.7,1.2 -194.7,2.3 -275.4,3.2 -161.2,3.6 -268.7,5.9 -268.7,5.9" /><path
         id="path140"
         style="fill:#988d8d;fill-opacity:1;fill-rule:nonzero;stroke:none"
         d="m 12074.4,8066.4 c 0,0 109,1.9 272.6,4.8 163.6,2.3 381.7,3.1 599.8,3.8 218,-0.6 436.1,-1.4 599.7,-3.8 163.6,-2.9 272.6,-4.8 272.6,-4.8 0,0 -109,-1.9 -272.6,-4.8 -163.6,-2.4 -381.7,-3.2 -599.7,-3.7 -218.1,0.6 -436.2,1.4 -599.8,3.7 -163.6,2.9 -272.6,4.8 -272.6,4.8" /><path
         id="path142"
         style="fill:#988d8d;fill-opacity:1;fill-rule:nonzero;stroke:none"
         d="m 13281.6,7741.8 c 0,0 107,2 267.5,4.8 160.4,2.3 374.4,3.2 588.4,3.8 213.9,-0.6 427.9,-1.4 588.3,-3.7 160.5,-2.9 267.5,-4.9 267.5,-4.9 0,0 -107,-1.9 -267.5,-4.8 -160.4,-2.3 -374.4,-3.1 -588.3,-3.7 -214,0.6 -428,1.4 -588.4,3.7 -160.5,2.9 -267.5,4.8 -267.5,4.8" /><path
         id="path144"
         style="fill:#988d8d;fill-opacity:1;fill-rule:nonzero;stroke:none"
         d="m 13087.8,7933.1 c 0,0 119.1,1.9 297.7,4.6 178.7,1.1 416.8,2.5 655,4 238.2,-1.5 476.4,-2.9 655.1,-4 178.6,-2.7 297.7,-4.6 297.7,-4.6 0,0 -119.1,-1.8 -297.7,-4.6 -178.7,-1 -416.9,-2.5 -655.1,-3.9 -238.2,1.4 -476.3,2.9 -655,3.9 -178.6,2.8 -297.7,4.6 -297.7,4.6" /><path
         id="path146"
         style="fill:#988d8d;fill-opacity:1;fill-rule:nonzero;stroke:none"
         d="m 13087.8,8272.2 c 0,0 119.1,2.9 297.7,7.3 89.3,1.1 193.5,2.5 305.2,3.9 111.6,0.6 230.7,1.2 349.8,1.7 119.1,-0.5 238.2,-1.1 349.9,-1.7 111.6,-1.4 215.8,-2.7 305.2,-3.9 178.6,-4.4 297.7,-7.3 297.7,-7.3 0,0 -119.1,-2.9 -297.7,-7.3 -89.4,-1.1 -193.6,-2.4 -305.2,-3.9 -111.7,-0.5 -230.8,-1.1 -349.9,-1.7 -119.1,0.6 -238.2,1.2 -349.8,1.7 -111.7,1.5 -215.9,2.8 -305.2,4 -178.6,4.3 -297.7,7.2 -297.7,7.2" /><path
         id="path148"
         style="fill:#988d8d;fill-opacity:1;fill-rule:nonzero;stroke:none"
         d="m 14483,8552.6 c 0,0 31.9,2.7 79.7,4.8 47.9,2.3 111.7,3.2 175.4,3.8 63.8,-0.6 127.6,-1.5 175.5,-3.8 47.8,-2 79.7,-4.8 79.7,-4.8 0,0 -31.9,-2.7 -79.7,-4.8 -47.9,-2.3 -111.7,-3.2 -175.5,-3.7 -63.7,0.6 -127.5,1.4 -175.4,3.7 -47.8,2.1 -79.7,4.8 -79.7,4.8" /><path
         id="path150"
         style="fill:#988d8d;fill-opacity:1;fill-rule:nonzero;stroke:none"
         d="m 12638.9,7570.8 c 0,0 133.6,1.8 334,4.6 200.4,1 467.6,2.5 734.8,3.9 267.2,-1.4 534.4,-2.9 734.8,-3.9 200.4,-2.8 334,-4.6 334,-4.6 0,0 -133.6,-1.9 -334,-4.6 -200.4,-1.1 -467.6,-2.5 -734.8,-4 -267.2,1.5 -534.4,2.9 -734.8,4 -200.4,2.7 -334,4.6 -334,4.6" /><path
         id="path152"
         style="fill:#988d8d;fill-opacity:1;fill-rule:nonzero;stroke:none"
         d="m 12533.2,8195 c 0,0 45.5,4.1 113.7,7.2 68.2,3.1 159.1,5.8 250,5.7 90.9,0.1 181.9,-2.6 250.1,-5.7 68.2,-3.1 113.6,-7.2 113.6,-7.2 0,0 -45.4,-4.2 -113.6,-7.3 -68.2,-3.1 -159.2,-5.8 -250.1,-5.7 -90.9,-0.1 -181.8,2.7 -250,5.7 -68.2,3.1 -113.7,7.3 -113.7,7.3" /><path
         id="path154"
         style="fill:#1a652a;fill-opacity:1;fill-rule:nonzero;stroke:none"
         d="m 12845.7,4924.1 h -35.4 v 911.4 h 35.4 c 64.1,0 116.4,52.3 116.4,116.4 0,64.1 -52.3,116 -116.4,116 H 8262.19 c -351.28,-30.3 -628.1,-328.6 -628.1,-687.9 0,-359.4 276.82,-658 628.1,-688.4 h 4583.51 c 64.1,0 116.4,52 116.4,116.1 0,64.5 -52.3,116.4 -116.4,116.4" /><path
         id="path156"
         style="fill:#d5cecb;fill-opacity:1;fill-rule:nonzero;stroke:none"
         d="m 15613.3,5835.5 h -3165.1 c -250,0 -452.6,-203.8 -452.6,-455.5 0,-252.1 202.6,-455.9 452.6,-455.9 h 3165.1 v 911.4" /><path
         id="path158"
         style="fill:#34b240;fill-opacity:1;fill-rule:nonzero;stroke:none"
         d="m 15648.5,4924.1 h -3320 c -249.1,2.7 -451.1,205.8 -451.1,455.9 0,249.6 202,452.8 451.1,455.5 h 3320 c 64.1,0 116.5,52.3 116.5,116.4 0,64.1 -52.4,116 -116.5,116 h -3375.4 c -351.5,-30.3 -628.1,-328.6 -628.1,-687.9 0,-359.4 276.6,-658 628.1,-688.4 h 3375.4 c 64.1,0 116.5,52 116.5,116.1 0,64.5 -52.4,116.4 -116.5,116.4" /><path
         id="path160"
         style="fill:#988d8d;fill-opacity:1;fill-rule:nonzero;stroke:none"
         d="m 12994.1,5666.4 c 0,0 133.3,1.9 333.3,4.8 200,1.2 466.6,2.7 733.3,4.1 266.6,-1.4 533.3,-2.9 733.3,-4 199.9,-3 333.3,-4.9 333.3,-4.9 0,0 -133.4,-1.9 -333.3,-4.8 -200,-1.1 -466.7,-2.6 -733.3,-4.1 -266.7,1.5 -533.3,3 -733.3,4.1 -200,2.9 -333.3,4.8 -333.3,4.8" /><path
         id="path162"
         style="fill:#988d8d;fill-opacity:1;fill-rule:nonzero;stroke:none"
         d="m 12454.6,5380 c 0,0 117.2,1.6 293,3.9 175.7,0.9 410.1,2.1 644.5,3.4 234.3,-1.3 468.7,-2.5 644.4,-3.4 175.8,-2.3 293,-3.9 293,-3.9 0,0 -117.2,-1.6 -293,-4 -175.7,-0.9 -410.1,-2.1 -644.4,-3.3 -234.4,1.2 -468.8,2.4 -644.5,3.4 -175.8,2.3 -293,3.9 -293,3.9" /><path
         id="path164"
         style="fill:#988d8d;fill-opacity:1;fill-rule:nonzero;stroke:none"
         d="m 13020.6,5173.8 c 0,0 162.1,1.6 405.1,3.9 243.1,1 567.2,2.2 891.3,3.4 324.1,-1.2 648.1,-2.4 891.2,-3.3 243.1,-2.4 405.1,-4 405.1,-4 0,0 -162,-1.6 -405.1,-3.9 -243.1,-0.9 -567.1,-2.2 -891.2,-3.4 -324.1,1.2 -648.2,2.5 -891.3,3.4 -243,2.4 -405.1,3.9 -405.1,3.9" /><path
         id="path166"
         style="fill:#988d8d;fill-opacity:1;fill-rule:nonzero;stroke:none"
         d="m 13321.1,5296 c 0,0 143.3,1.5 358.1,3.9 214.9,0.9 501.5,2.1 788,3.4 286.5,-1.3 573.1,-2.5 788,-3.4 214.8,-2.4 358.1,-3.9 358.1,-3.9 0,0 -143.3,-1.6 -358.1,-4 -214.9,-0.9 -501.5,-2.1 -788,-3.4 -286.5,1.3 -573.1,2.5 -788,3.4 -214.8,2.4 -358.1,4 -358.1,4" /><path
         id="path168"
         style="fill:#988d8d;fill-opacity:1;fill-rule:nonzero;stroke:none"
         d="m 13321.1,5527.4 c 0,0 143.3,2.5 358.1,6.2 107.5,1 232.9,2.1 367.2,3.4 134.3,0.4 277.5,1 420.8,1.4 143.3,-0.4 286.5,-0.9 420.8,-1.4 134.3,-1.2 259.7,-2.4 367.2,-3.4 214.8,-3.7 358.1,-6.2 358.1,-6.2 0,0 -143.3,-2.5 -358.1,-6.2 -107.5,-1 -232.9,-2.2 -367.2,-3.4 -134.3,-0.5 -277.5,-0.9 -420.8,-1.4 -143.3,0.5 -286.5,1 -420.8,1.4 -134.3,1.3 -259.7,2.4 -367.2,3.4 -214.8,3.7 -358.1,6.2 -358.1,6.2" /><path
         id="path170"
         style="fill:#988d8d;fill-opacity:1;fill-rule:nonzero;stroke:none"
         d="m 14567.1,5767.6 c 0,0 65.4,1.7 163.4,4.1 98.1,2 228.9,2.7 359.7,3.3 130.8,-0.6 261.5,-1.2 359.6,-3.2 98.1,-2.5 163.5,-4.2 163.5,-4.2 0,0 -65.4,-1.6 -163.5,-4.1 -98.1,-2 -228.8,-2.6 -359.6,-3.2 -130.8,0.6 -261.6,1.3 -359.7,3.3 -98,2.4 -163.4,4 -163.4,4" /><path
         id="path172"
         style="fill:#988d8d;fill-opacity:1;fill-rule:nonzero;stroke:none"
         d="m 12937.2,5102.6 c 0,0 155.7,1.6 389.3,3.9 233.5,1 544.8,2.2 856.2,3.4 311.4,-1.2 622.8,-2.4 856.3,-3.3 233.5,-2.4 389.2,-4 389.2,-4 0,0 -155.7,-1.6 -389.2,-3.9 -233.5,-0.9 -544.9,-2.2 -856.3,-3.4 -311.4,1.2 -622.7,2.5 -856.2,3.4 -233.6,2.3 -389.3,3.9 -389.3,3.9" /><path
         id="path174"
         style="fill:#988d8d;fill-opacity:1;fill-rule:nonzero;stroke:none"
         d="m 12847.2,5461.9 c 0,0 62.8,3.6 157,6.2 47.2,1 102.1,2.2 161,3.4 58.9,0.5 121.7,1 184.5,1.5 62.8,-0.5 125.6,-1 184.5,-1.5 58.8,-1.2 113.8,-2.3 160.9,-3.3 94.2,-2.7 157,-6.3 157,-6.3 0,0 -62.8,-3.5 -157,-6.2 -47.1,-1 -102.1,-2.1 -160.9,-3.3 -58.9,-0.5 -121.7,-1 -184.5,-1.5 -62.8,0.5 -125.6,1 -184.5,1.5 -58.9,1.2 -113.8,2.4 -161,3.4 -94.2,2.6 -157,6.1 -157,6.1" /><path
         id="path176"
         style="fill:#bab5ac;fill-opacity:1;fill-rule:nonzero;stroke:none"
         d="m 12428.8,5050.3 c -332,0 -433.2,235.2 -433.2,329.7 0,251.7 202.6,455.5 452.6,455.5 h -118.1 c -250.1,0 -452.7,-203.8 -452.7,-455.5 0,-252.1 202.6,-455.9 452.7,-455.9 h 3283.2 v 126.2 h -3184.5" /><path
         id="path178"
         style="fill:#c63e17;fill-opacity:1;fill-rule:nonzero;stroke:none"
         d="m 12624.2,7212.4 c 40.6,0 73.7,33.1 73.7,73.6 0,40.8 -33.1,73.5 -73.7,73.5 H 10012 c -159.27,-14.1 -306.9,-87.7 -416.23,-207.1 -110.15,-120.1 -171.16,-276 -171.16,-438.6 0,-162.4 61.01,-318.2 171.16,-438.3 109.33,-119.5 256.96,-192.7 416.23,-207.6 h 2612.2 c 40.6,0 73.7,33.1 73.7,73.9 0,40.5 -33.1,73.2 -73.7,73.2 h -13.4 v 997.4 h 13.4" /><path
         id="path180"
         style="fill:#d5cecb;fill-opacity:1;fill-rule:nonzero;stroke:none"
         d="m 14558.9,7213.8 h -1796 c -274.2,0 -496.4,-224 -496.4,-500 0,-276.1 222.2,-499.8 496.4,-499.8 h 1796 v 999.8" /><path
         id="path182"
         style="fill:#ef6219;fill-opacity:1;fill-rule:nonzero;stroke:none"
         d="m 14572.2,6215 h -1941.8 c -272.1,3.1 -493.3,226.8 -493.3,498.8 0,272.2 221.2,495.9 493.3,498.6 h 0.4 0.1 1941.3 c 40.6,0 73.5,33.1 73.5,73.6 0,40.8 -32.9,73.5 -73.5,73.5 h -1994.9 c -159.1,-14.1 -306.9,-87.7 -416.2,-207.1 -110.3,-120.1 -171.2,-276 -171.2,-438.6 0,-162.4 60.9,-318.2 171.2,-438.3 109.3,-119.5 257.1,-192.7 416.2,-207.6 h 1994.9 c 40.6,0 73.5,33.1 73.5,73.9 0,40.5 -32.9,73.2 -73.5,73.2" /><path
         id="path184"
         style="fill:#988d8d;fill-opacity:1;fill-rule:nonzero;stroke:none"
         d="m 13137.2,7027.9 c 0,0 70.4,2.2 175.9,5.5 105.6,2.6 246.3,3.6 387,4.3 140.7,-0.7 281.4,-1.6 387,-4.3 105.5,-3.3 175.9,-5.5 175.9,-5.5 0,0 -70.4,-2.2 -175.9,-5.5 -105.6,-2.7 -246.3,-3.7 -387,-4.3 -140.7,0.7 -281.4,1.6 -387,4.3 -105.5,3.3 -175.9,5.5 -175.9,5.5" /><path
         id="path186"
         style="fill:#988d8d;fill-opacity:1;fill-rule:nonzero;stroke:none"
         d="m 12769.9,6713.8 c 0,0 61.7,1.8 154.4,4.5 92.6,2.1 216.1,2.9 339.7,3.5 123.5,-0.6 247,-1.4 339.7,-3.5 92.6,-2.7 154.4,-4.5 154.4,-4.5 0,0 -61.8,-1.9 -154.4,-4.6 -92.7,-2.1 -216.2,-2.9 -339.7,-3.5 -123.6,0.6 -247.1,1.4 -339.7,3.5 -92.7,2.7 -154.4,4.6 -154.4,4.6" /><path
         id="path188"
         style="fill:#988d8d;fill-opacity:1;fill-rule:nonzero;stroke:none"
         d="m 13677.9,6488.3 c 0,0 55.1,1.8 137.7,4.5 82.6,2.2 192.7,3 302.8,3.6 110.1,-0.6 220.3,-1.4 302.9,-3.5 82.5,-2.8 137.6,-4.6 137.6,-4.6 0,0 -55.1,-1.8 -137.6,-4.5 -82.6,-2.2 -192.8,-2.9 -302.9,-3.5 -110.1,0.6 -220.2,1.4 -302.8,3.6 -82.6,2.6 -137.7,4.4 -137.7,4.4" /><path
         id="path190"
         style="fill:#988d8d;fill-opacity:1;fill-rule:nonzero;stroke:none"
         d="m 13496,6622.3 c 0,0 66.4,1.8 166,4.5 99.7,2.2 232.6,3 365.4,3.5 132.9,-0.5 265.8,-1.3 365.4,-3.5 99.7,-2.7 166.1,-4.5 166.1,-4.5 0,0 -66.4,-1.8 -166.1,-4.5 -99.6,-2.2 -232.5,-3 -365.4,-3.5 -132.8,0.5 -265.7,1.3 -365.4,3.5 -99.6,2.7 -166,4.5 -166,4.5" /><path
         id="path192"
         style="fill:#988d8d;fill-opacity:1;fill-rule:nonzero;stroke:none"
         d="m 13496,6876 c 0,0 66.4,3.9 166,6.8 49.9,1.1 108,2.4 170.3,3.7 62.3,0.5 128.7,1.1 195.1,1.6 66.5,-0.5 132.9,-1 195.2,-1.6 62.2,-0.4 120.4,-2.6 170.2,-3.6 99.7,-3 166.1,-6.9 166.1,-6.9 0,0 -66.4,-3.9 -166.1,-6.8 -49.8,-1 -108,-3.3 -170.2,-3.7 -62.3,-0.5 -128.7,-1 -195.2,-1.6 -66.4,0.6 -132.8,1.2 -195.1,1.6 -62.3,1.4 -120.4,2.7 -170.3,3.7 -99.6,3 -166,6.8 -166,6.8" /><path
         id="path194"
         style="fill:#988d8d;fill-opacity:1;fill-rule:nonzero;stroke:none"
         d="m 13649.1,7138.9 c 0,0 56.8,1.8 142.2,4.5 85.2,2.2 199,2.9 312.7,3.5 113.7,-0.5 227.4,-1.3 312.7,-3.5 85.3,-2.7 142.2,-4.5 142.2,-4.5 0,0 -56.9,-1.8 -142.2,-4.5 -85.3,-2.2 -199,-3 -312.7,-3.5 -113.7,0.5 -227.5,1.3 -312.7,3.5 -85.4,2.7 -142.2,4.5 -142.2,4.5" /><path
         id="path196"
         style="fill:#988d8d;fill-opacity:1;fill-rule:nonzero;stroke:none"
         d="m 13075.2,6410.1 c 0,0 78.3,2.5 195.9,4.3 117.6,1 274.4,2.3 431.2,3.7 156.8,-1.4 313.6,-2.7 431.2,-3.7 117.6,-1.8 196,-4.3 196,-4.3 0,0 -78.4,-2.6 -196,-4.3 -117.6,-1.1 -274.4,-2.4 -431.2,-3.7 -156.8,1.3 -313.6,2.7 -431.2,3.7 -117.6,1.8 -195.9,4.3 -195.9,4.3" /><path
         id="path198"
         style="fill:#988d8d;fill-opacity:1;fill-rule:nonzero;stroke:none"
         d="m 12976.3,6803.8 c 0,0 69.5,3.9 173.9,6.8 52.2,1.1 113.1,2.4 178.3,3.7 65.2,0.5 134.8,1.1 204.4,1.6 69.6,-0.5 139.2,-1.1 204.4,-1.6 65.3,-0.4 126.1,-2.6 178.3,-3.6 104.4,-3 174,-6.9 174,-6.9 0,0 -69.6,-3.9 -174,-6.8 -52.2,-1 -113,-3.3 -178.3,-3.7 -65.2,-0.5 -134.8,-1 -204.4,-1.6 -69.6,0.6 -139.2,1.1 -204.4,1.6 -65.2,1.4 -126.1,2.7 -178.3,3.7 -104.4,3 -173.9,6.8 -173.9,6.8" /><path
         id="path200"
         style="fill:#bab5ac;fill-opacity:1;fill-rule:nonzero;stroke:none"
         d="m 12741.6,6352.7 c -364.2,0 -475.1,257.8 -475.1,361.1 0,276 222.2,500 496.4,500 h -129.6 c -274,0 -496.2,-224 -496.2,-500 0,-276.1 222.2,-499.8 496.2,-499.8 h 1925.6 v 138.7 h -1817.3" /><g
         transform="scale(1.19447)"
         id="g202"><path
           id="path204"
           style="fill:#4cafe6;fill-opacity:1;fill-rule:nonzero;stroke:none"
           d="m 14841.6,9430 c 0,0 -215.9,178.8 -913.1,178.8 -697.2,0 -913.1,-178.8 -913.1,-178.8 L 11557,6300.55 c 0,0 460.3,-209.04 2371.5,-209.04 1911.1,0 2371.5,209.04 2371.5,209.04 L 14841.6,9430" /></g><g
         transform="scale(1.0876)"
         id="g206"><path
           id="path208"
           style="fill:#3d8ab8;fill-opacity:1;fill-rule:nonzero;stroke:none"
           d="m 16300,10356.6 c 0,0 -279.5,-195.4 -1002.9,-195.4 -723.3,0 -1002.8,195.4 -1002.8,195.4 0,0 170.1,195.5 1002.8,195.5 832.8,0 1002.9,-195.5 1002.9,-195.5" /></g><g
         transform="scale(1.08875)"
         id="g210"><path
           id="path212"
           style="fill:#1c3155;fill-opacity:1;fill-rule:nonzero;stroke:none"
           d="m 15996.6,5732.42 c -13,12.77 -26.3,25.17 -40,37.29 -221.5,225.12 -283.7,616.21 -295.5,918.57 -120.6,-3.49 -247.2,-5.32 -380.2,-5.32 -133.1,0 -259.7,1.83 -380.3,5.32 -11.8,-302.36 -74,-693.36 -295.5,-918.48 -210.5,-186.72 -343.4,-459.05 -343.4,-762.7 0,-258.28 96.4,-494.15 254.7,-673.71 h 1528.9 c 158.4,179.56 254.7,415.43 254.7,673.71 0,283.81 -116.1,540.43 -303.4,725.23 v 0.09" /></g></g></g></svg>