<svg id="Layer_1" data-name="Layer 1" xmlns="http://www.w3.org/2000/svg" viewBox="0 0 1218.31 1128.13"><defs><style>.cls-1{fill:#98ddde;}.cls-2{fill:#f7786b;}.cls-3{fill:#4481ab;}.cls-4,.cls-9{fill:#3c3c3b;}.cls-4,.cls-8{opacity:0.2;}.cls-5{fill:#90a7cf;}.cls-6{fill:#fff;}.cls-7{fill:#e0dfdd;}.cls-10{fill:#34629a;}.cls-11{fill:#f6cac8;}.cls-12{fill:#c5392c;}.cls-13{fill:#f6c9c9;}.cls-14{fill:#9796a3;}.cls-15{fill:#034e83;}.cls-16{fill:#034f84;}.cls-17{fill:#ededed;}.cls-18{fill:#f9e03c;}.cls-19{fill:#f8c00b;}.cls-20{fill:#6799bc;}.cls-21{fill:#78c652;}.cls-22{fill:#8bcb74;}.cls-23{fill:#f07163;}.cls-24{fill:#b2b2b2;}.cls-25{fill:#9795a3;}.cls-26{fill:#024e83;}.cls-27{fill:#f9df3c;}.cls-28{fill:#dd4132;}.cls-29{fill:#f6776a;}.cls-30{fill:#9d9d9c;}.cls-31{fill:#3b3b3b;}.cls-32{fill:#dadada;}.cls-33{fill:#484848;}.cls-34{fill:#ffa727;}.cls-35{opacity:0.5;}.cls-36{fill:#5c5c5c;}.cls-37{fill:#ba2430;}.cls-38{fill:#f9e566;}.cls-39{fill:#dc4031;}.cls-40{fill:#f9df3b;}</style></defs><title>price</title><rect class="cls-1" x="388.13" y="600.21" width="470.72" height="635.34" transform="translate(-576.91 767.9) rotate(-56.41)"/><rect class="cls-1" x="524.04" y="375.5" width="470.72" height="635.34" transform="translate(-329 780.72) rotate(-56.41)"/><rect class="cls-2" x="678.96" y="548.97" width="470.72" height="635.34" transform="translate(-404.29 987.27) rotate(-56.41)"/><rect class="cls-3" x="140.28" y="382.04" width="470.12" height="664.88" transform="translate(-198.7 -93.51) rotate(-9.06)"/><path class="cls-4" d="M604.5,1014.56l-400.42,63.88L99.34,421.86,499.77,358A51.72,51.72,0,0,1,559,400.91l88.44,554.43A51.72,51.72,0,0,1,604.5,1014.56Z" transform="translate(-90.84 -161.55)"/><path class="cls-5" d="M596,1015.92l-400.42,63.87L90.84,423.21l400.43-63.87a51.72,51.72,0,0,1,59.22,42.93L638.93,956.7A51.72,51.72,0,0,1,596,1015.92Z" transform="translate(-90.84 -161.55)"/><rect class="cls-6" x="139.7" y="617.32" width="456.55" height="188.23" transform="translate(-198.32 -94.71) rotate(-9.06)"/><rect class="cls-7" x="155.18" y="804.31" width="456.75" height="8.32" transform="translate(-213.41 -91.04) rotate(-9.06)"/><g class="cls-8"><polygon class="cls-9" points="390.32 199.4 385.99 200.09 385.93 200.1 381.53 200.8 486.23 857.17 490.63 856.47 490.68 856.46 495.02 855.76 495.09 855.75 499.48 855.05 394.78 198.69 390.39 199.39 390.32 199.4"/><rect class="cls-9" x="542.41" y="355.02" width="4.51" height="664.66" transform="translate(-192.32 -67.18) rotate(-9.06)"/><rect class="cls-9" x="537.95" y="355.74" width="4.51" height="664.66" transform="translate(-192.51 -67.85) rotate(-9.07)"/></g><rect class="cls-10" x="516.19" y="359.21" width="4.51" height="664.66" transform="translate(-193.32 -71.24) rotate(-9.06)"/><rect class="cls-3" x="520.6" y="358.5" width="4.51" height="664.66" transform="translate(-193.13 -70.57) rotate(-9.06)"/><rect class="cls-10" x="524.99" y="357.8" width="4.51" height="664.66" transform="translate(-192.96 -69.9) rotate(-9.06)"/><rect class="cls-10" x="533.91" y="356.38" width="4.51" height="664.66" transform="translate(-192.67 -68.46) rotate(-9.07)"/><rect class="cls-3" x="529.45" y="357.09" width="4.51" height="664.66" transform="translate(-192.8 -69.2) rotate(-9.06)"/><rect class="cls-11" x="468.18" y="560.6" width="470.72" height="635.34" transform="translate(-250.69 -5.01) rotate(-11.41)"/><path class="cls-12" d="M1056.63,1038.17a19.76,19.76,0,0,1-15.18,23.43L573.72,1156a19.74,19.74,0,0,1-23.08-15.7L430.89,547a19.75,19.75,0,0,1,15.18-23.43l467.73-94.4a19.74,19.74,0,0,1,23.08,15.71Z" transform="translate(-90.84 -161.55)"/><rect class="cls-6" x="495.91" y="487.1" width="479.07" height="614.3" transform="translate(-233.44 -0.36) rotate(-11.41)"/><rect class="cls-5" x="970.09" y="438.18" width="15.5" height="614.3" transform="translate(-218.97 46.63) rotate(-11.41)"/><rect class="cls-13" x="480.18" y="488.96" width="60.85" height="36.95" transform="translate(-181.14 -50.51) rotate(-11.41)"/><rect class="cls-2" x="560.66" y="472.72" width="60.85" height="36.95" transform="matrix(0.98, -0.2, 0.2, 0.98, -176.34, -34.91)"/><rect class="cls-5" x="643.12" y="456.07" width="60.85" height="36.95" transform="translate(-171.41 -18.93) rotate(-11.41)"/><rect class="cls-14" x="728.33" y="438.88" width="60.85" height="36.95" transform="translate(-166.33 -2.41) rotate(-11.41)"/><rect class="cls-15" x="810.7" y="422.25" width="60.85" height="36.95" transform="translate(-161.41 13.55) rotate(-11.41)"/><path class="cls-12" d="M457.06,567.1a11.59,11.59,0,1,1,13.65,9.07A11.59,11.59,0,0,1,457.06,567.1Z" transform="translate(-90.84 -161.55)"/><rect class="cls-16" x="430.42" y="563.86" width="42.27" height="8.69" rx="2.6" transform="translate(-194.33 -60.99) rotate(-11.41)"/><path class="cls-12" d="M463.43,598.66a11.59,11.59,0,1,1,13.65,9.07A11.59,11.59,0,0,1,463.43,598.66Z" transform="translate(-90.84 -161.55)"/><rect class="cls-16" x="436.79" y="595.42" width="42.27" height="8.69" rx="2.6" transform="translate(-200.44 -59.11) rotate(-11.41)"/><path class="cls-12" d="M469.8,630.22a11.59,11.59,0,1,1,13.65,9.07A11.59,11.59,0,0,1,469.8,630.22Z" transform="translate(-90.84 -161.55)"/><rect class="cls-16" x="443.16" y="626.98" width="42.27" height="8.69" rx="2.6" transform="matrix(0.98, -0.2, 0.2, 0.98, -206.56, -57.23)"/><path class="cls-12" d="M476.16,661.78a11.59,11.59,0,1,1,13.66,9.06A11.6,11.6,0,0,1,476.16,661.78Z" transform="translate(-90.84 -161.55)"/><rect class="cls-16" x="449.53" y="658.54" width="42.27" height="8.69" rx="2.6" transform="translate(-212.68 -55.34) rotate(-11.41)"/><path class="cls-12" d="M482.53,693.34a11.59,11.59,0,1,1,13.66,9.06A11.6,11.6,0,0,1,482.53,693.34Z" transform="translate(-90.84 -161.55)"/><rect class="cls-16" x="455.9" y="690.1" width="42.27" height="8.69" rx="2.6" transform="translate(-218.8 -53.45) rotate(-11.41)"/><path class="cls-12" d="M488.9,724.9A11.59,11.59,0,1,1,502.56,734,11.6,11.6,0,0,1,488.9,724.9Z" transform="translate(-90.84 -161.55)"/><rect class="cls-16" x="462.27" y="721.66" width="42.27" height="8.69" rx="2.6" transform="translate(-224.91 -51.57) rotate(-11.41)"/><path class="cls-12" d="M495.27,756.45a11.59,11.59,0,1,1,13.66,9.07A11.6,11.6,0,0,1,495.27,756.45Z" transform="translate(-90.84 -161.55)"/><rect class="cls-16" x="468.64" y="753.22" width="42.27" height="8.69" rx="2.6" transform="translate(-231.03 -49.69) rotate(-11.41)"/><path class="cls-12" d="M501.64,788a11.59,11.59,0,1,1,13.66,9.07A11.6,11.6,0,0,1,501.64,788Z" transform="translate(-90.84 -161.55)"/><rect class="cls-16" x="475.01" y="784.78" width="42.27" height="8.69" rx="2.6" transform="translate(-237.15 -47.81) rotate(-11.41)"/><path class="cls-12" d="M508,819.57a11.59,11.59,0,1,1,13.66,9.07A11.6,11.6,0,0,1,508,819.57Z" transform="translate(-90.84 -161.55)"/><rect class="cls-16" x="481.38" y="816.34" width="42.27" height="8.69" rx="2.6" transform="translate(-243.27 -45.92) rotate(-11.41)"/><path class="cls-12" d="M514.38,851.13A11.59,11.59,0,1,1,528,860.2,11.58,11.58,0,0,1,514.38,851.13Z" transform="translate(-90.84 -161.55)"/><rect class="cls-16" x="487.75" y="847.9" width="42.27" height="8.69" rx="2.6" transform="translate(-249.39 -44.04) rotate(-11.41)"/><path class="cls-12" d="M520.75,882.69a11.59,11.59,0,1,1,13.65,9.07A11.59,11.59,0,0,1,520.75,882.69Z" transform="translate(-90.84 -161.55)"/><rect class="cls-16" x="494.12" y="879.46" width="42.27" height="8.69" rx="2.6" transform="translate(-255.5 -42.16) rotate(-11.41)"/><path class="cls-12" d="M527.12,914.25a11.59,11.59,0,1,1,13.65,9.07A11.58,11.58,0,0,1,527.12,914.25Z" transform="translate(-90.84 -161.55)"/><rect class="cls-16" x="500.49" y="911.02" width="42.27" height="8.69" rx="2.6" transform="translate(-261.64 -40.26) rotate(-11.41)"/><path class="cls-12" d="M533.49,945.81a11.59,11.59,0,1,1,13.65,9.07A11.58,11.58,0,0,1,533.49,945.81Z" transform="translate(-90.84 -161.55)"/><rect class="cls-16" x="506.86" y="942.58" width="42.27" height="8.69" rx="2.6" transform="translate(-267.73 -38.39) rotate(-11.41)"/><path class="cls-12" d="M539.86,977.37a11.59,11.59,0,1,1,13.65,9.07A11.58,11.58,0,0,1,539.86,977.37Z" transform="translate(-90.84 -161.55)"/><rect class="cls-16" x="513.23" y="974.13" width="42.27" height="8.69" rx="2.6" transform="translate(-273.88 -36.48) rotate(-11.41)"/><path class="cls-12" d="M546.23,1008.93a11.59,11.59,0,1,1,13.65,9.07A11.58,11.58,0,0,1,546.23,1008.93Z" transform="translate(-90.84 -161.55)"/><rect class="cls-16" x="519.6" y="1005.7" width="42.27" height="8.69" rx="2.6" transform="translate(-279.98 -34.61) rotate(-11.41)"/><path class="cls-12" d="M552.6,1040.49a11.59,11.59,0,1,1,13.65,9.07A11.58,11.58,0,0,1,552.6,1040.49Z" transform="translate(-90.84 -161.55)"/><rect class="cls-16" x="525.96" y="1037.25" width="42.27" height="8.69" rx="2.6" transform="translate(-286.11 -32.72) rotate(-11.41)"/><path class="cls-12" d="M559,1072.05a11.59,11.59,0,1,1,13.65,9.07A11.58,11.58,0,0,1,559,1072.05Z" transform="translate(-90.84 -161.55)"/><rect class="cls-16" x="532.33" y="1068.81" width="42.27" height="8.69" rx="2.6" transform="matrix(0.98, -0.2, 0.2, 0.98, -292.21, -30.85)"/><path class="cls-12" d="M565.34,1103.61a11.59,11.59,0,1,1,13.65,9.07A11.58,11.58,0,0,1,565.34,1103.61Z" transform="translate(-90.84 -161.55)"/><rect class="cls-16" x="538.7" y="1100.37" width="42.27" height="8.69" rx="2.6" transform="translate(-298.33 -28.96) rotate(-11.41)"/><path class="cls-17" d="M399.26,395.16H366a4,4,0,0,0-4,4l-.93,184.46a12.17,12.17,0,0,0,12.17,12.23H392a12.16,12.16,0,0,0,12.16-12.23l-.93-184.46A4,4,0,0,0,399.26,395.16Z" transform="translate(-90.84 -161.55)"/><path class="cls-18" d="M395.2,358.6H370.09a5.16,5.16,0,0,0-5.15,5.52l2.16,31h31.09l2.16-31A5.16,5.16,0,0,0,395.2,358.6Z" transform="translate(-90.84 -161.55)"/><path class="cls-19" d="M384.21,348.17h-3.13a10.43,10.43,0,0,0-10.43,10.43h24A10.43,10.43,0,0,0,384.21,348.17Z" transform="translate(-90.84 -161.55)"/><rect class="cls-6" x="284.17" y="233.32" width="15.26" height="200.65"/><path class="cls-17" d="M478.82,954.21,447.21,944a4,4,0,0,0-5,2.56l-57.71,175.2a12.17,12.17,0,0,0,7.81,15.39l17.86,5.78a12.18,12.18,0,0,0,15.35-7.88l55.93-175.78A4,4,0,0,0,478.82,954.21Z" transform="translate(-90.84 -161.55)"/><path class="cls-15" d="M486.22,918.18l-23.88-7.74a5.17,5.17,0,0,0-6.61,3.67l-7.5,30.19,29.58,9.58L489.42,925A5.16,5.16,0,0,0,486.22,918.18Z" transform="translate(-90.84 -161.55)"/><path class="cls-20" d="M479.3,905l-3.62-1.17A10.09,10.09,0,0,0,463,910.29l-.1.32L485.69,918l.11-.32A10.1,10.1,0,0,0,479.3,905Z" transform="translate(-90.84 -161.55)"/><rect class="cls-6" x="331.88" y="1036.63" width="200.65" height="15.26" transform="translate(-785.26 972.21) rotate(-72.06)"/><path class="cls-17" d="M323.66,715.06l-32.3,7.78a4,4,0,0,0-3,4.82l42.29,179.55a12.17,12.17,0,0,0,14.69,9l18.26-4.4a12.16,12.16,0,0,0,9-14.74L328.49,718A4,4,0,0,0,323.66,715.06Z" transform="translate(-90.84 -161.55)"/><path class="cls-21" d="M311.15,680.47l-24.41,5.88a5.16,5.16,0,0,0-3.71,6.57l9.37,29.67,30.23-7.28-5.17-30.68A5.17,5.17,0,0,0,311.15,680.47Z" transform="translate(-90.84 -161.55)"/><path class="cls-22" d="M298.36,672.82l-3.71.9a10.08,10.08,0,0,0-7.44,12.17l.08.33,23.32-5.62-.08-.33A10.09,10.09,0,0,0,298.36,672.82Z" transform="translate(-90.84 -161.55)"/><rect class="cls-6" x="323.31" y="715.88" width="15.26" height="200.65" transform="translate(-272.79 -61.35) rotate(-13.54)"/><path class="cls-17" d="M306.4,486.28,276,472.94a4,4,0,0,0-5.27,2L195.78,643.55A12.16,12.16,0,0,0,202,659.63l17.2,7.54a12.16,12.16,0,0,0,16-6.31l73.21-169.32A4,4,0,0,0,306.4,486.28Z" transform="translate(-90.84 -161.55)"/><path class="cls-2" d="M317.36,451.17l-23-10.08a5.16,5.16,0,0,0-6.94,3L277,473.37l28.48,12.48,14.43-27.56A5.15,5.15,0,0,0,317.36,451.17Z" transform="translate(-90.84 -161.55)"/><path class="cls-23" d="M311.49,437.21,308.61,436a10.42,10.42,0,0,0-13.73,5.36h0l22,9.63h0A10.42,10.42,0,0,0,311.49,437.21Z" transform="translate(-90.84 -161.55)"/><rect class="cls-6" x="150.69" y="563.6" width="200.65" height="15.26" transform="translate(-463.78 410.21) rotate(-66.33)"/><rect class="cls-6" x="539.6" y="511.34" width="408.27" height="577.41" transform="translate(-231.78 -2.27) rotate(-11.17)"/><rect class="cls-24" x="631.77" y="877.78" width="305.39" height="12.96" transform="translate(-247.32 7.22) rotate(-11.17)"/><rect class="cls-24" x="661.91" y="1030.36" width="305.39" height="12.96" transform="translate(-276.32 15.95) rotate(-11.17)"/><rect class="cls-24" x="609.57" y="914.46" width="334.56" height="12.96" transform="translate(-254.58 6.44) rotate(-11.17)"/><rect class="cls-24" x="617.11" y="952.61" width="334.56" height="12.96" transform="translate(-261.82 8.62) rotate(-11.17)"/><rect class="cls-24" x="624.64" y="990.75" width="334.56" height="12.96" transform="translate(-269.07 10.8) rotate(-11.17)"/><line class="cls-16" x1="485.14" y1="425.79" x2="544.43" y2="725.98"/><rect class="cls-16" x="604.86" y="584.44" width="1.54" height="306" transform="translate(-222.26 -30.22) rotate(-11.17)"/><line class="cls-16" x1="809.81" y1="643.35" x2="509.61" y2="702.65"/><rect class="cls-16" x="597.56" y="833.79" width="306" height="1.54" transform="translate(-238.33 -0.3) rotate(-11.17)"/><rect class="cls-25" x="642.78" y="801.31" width="29.79" height="51.1" transform="translate(-238.6 -18.44) rotate(-11.17)"/><rect class="cls-26" x="682.92" y="738.79" width="29.79" height="105.17" transform="translate(-230.97 -11.33) rotate(-11.17)"/><rect class="cls-27" x="724.42" y="690.11" width="29.79" height="145.26" transform="translate(-224.63 -3.84) rotate(-11.17)"/><rect class="cls-5" x="771.5" y="698.46" width="29.79" height="127.78" transform="translate(-223.66 5.28) rotate(-11.17)"/><rect class="cls-28" x="811.4" y="633.49" width="29.79" height="184.32" transform="translate(-215.8 12.32) rotate(-11.17)"/><path class="cls-29" d="M638.54,698.14a6.17,6.17,0,1,1-7.25-4.86A6.18,6.18,0,0,1,638.54,698.14Z" transform="translate(-90.84 -161.55)"/><path class="cls-29" d="M677.15,654.89A6.17,6.17,0,1,1,669.9,650,6.17,6.17,0,0,1,677.15,654.89Z" transform="translate(-90.84 -161.55)"/><path class="cls-29" d="M714,602.56a6.17,6.17,0,1,1-7.24-4.86A6.16,6.16,0,0,1,714,602.56Z" transform="translate(-90.84 -161.55)"/><path class="cls-29" d="M764.52,619.81a6.17,6.17,0,1,1-7.24-4.85A6.17,6.17,0,0,1,764.52,619.81Z" transform="translate(-90.84 -161.55)"/><path class="cls-29" d="M798.75,554.37a6.17,6.17,0,1,1-7.24-4.85A6.17,6.17,0,0,1,798.75,554.37Z" transform="translate(-90.84 -161.55)"/><polygon class="cls-28" points="542.22 538.29 541.07 537.27 579.67 494.01 616.77 441.28 667.25 458.51 701.17 393.66 702.54 394.37 668.01 460.4 617.37 443.11 580.88 494.97 542.22 538.29"/><path class="cls-30" d="M1226.64,596.76l2.92,8.52a40.85,40.85,0,0,1-25.39,51.89L905.9,759.47A40.85,40.85,0,0,1,854,734.09l-2.92-8.52A40.86,40.86,0,0,0,903,751l298.27-102.3A40.86,40.86,0,0,0,1226.64,596.76Z" transform="translate(-90.84 -161.55)"/><path class="cls-24" d="M1130.5,316.46l96.14,280.3a40.86,40.86,0,0,1-25.39,51.9L903,751a40.86,40.86,0,0,1-51.9-25.39l-96.14-280.3Z" transform="translate(-90.84 -161.55)"/><path class="cls-24" d="M1130.5,316.46l96.14,280.3a40.86,40.86,0,0,1-25.39,51.9L903,751a40.86,40.86,0,0,1-51.9-25.39l-96.14-280.3Z" transform="translate(-90.84 -161.55)"/><path class="cls-31" d="M1041.53,163.43,731.25,269.85a34.5,34.5,0,0,0-21.44,43.83l45.13,131.6,375.55-128.81-45.13-131.6A34.51,34.51,0,0,0,1041.53,163.43Z" transform="translate(-90.84 -161.55)"/><rect class="cls-30" x="748.16" y="380.21" width="397.03" height="24.37" transform="translate(-166.95 166.81) rotate(-18.93)"/><path class="cls-32" d="M1086.48,316.1,789.47,418a22.51,22.51,0,0,1-28.59-14L738.66,339.2A12,12,0,0,1,746.12,324L1063,215.27a12,12,0,0,1,15.24,7.46l22.22,64.79A22.48,22.48,0,0,1,1086.48,316.1Z" transform="translate(-90.84 -161.55)"/><path class="cls-33" d="M1070.59,306.75,796.28,400.84a9,9,0,0,1-11.44-5.59l-18.49-53.92a9,9,0,0,1,5.59-11.43l274.32-94.09a9,9,0,0,1,11.43,5.59l18.49,53.92A9,9,0,0,1,1070.59,306.75Z" transform="translate(-90.84 -161.55)"/><rect class="cls-34" x="723.41" y="276.74" width="89.99" height="21" rx="6.49" transform="translate(-142.47 103.28) rotate(-18.93)"/><g class="cls-35"><rect class="cls-9" x="824.5" y="518.84" width="52" height="37" rx="4.5" transform="translate(-219.17 143.44) rotate(-18.93)"/><rect class="cls-9" x="890.71" y="496.13" width="52" height="37" rx="4.5" transform="translate(-208.22 163.7) rotate(-18.93)"/><rect class="cls-9" x="956.92" y="473.42" width="52" height="37" rx="4.5" transform="translate(-197.27 183.95) rotate(-18.93)"/><rect class="cls-9" x="1023.14" y="450.71" width="52" height="37" rx="4.5" transform="translate(-186.32 204.2) rotate(-18.93)"/><rect class="cls-9" x="1089.35" y="428" width="52" height="37" rx="4.5" transform="translate(-175.37 224.46) rotate(-18.93)"/><rect class="cls-9" x="805.03" y="462.09" width="52" height="37" rx="4.5" transform="translate(-201.81 134.06) rotate(-18.93)"/><rect class="cls-9" x="871.24" y="439.38" width="52" height="37" rx="4.5" transform="translate(-190.86 154.31) rotate(-18.93)"/><rect class="cls-9" x="937.46" y="416.67" width="52" height="37" rx="4.5" transform="translate(-179.91 174.56) rotate(-18.93)"/><rect class="cls-9" x="1003.67" y="393.96" width="52" height="37" rx="4.5" transform="translate(-168.96 194.82) rotate(-18.93)"/><rect class="cls-9" x="1069.88" y="371.25" width="52" height="37" rx="4.5" transform="translate(-158.01 215.07) rotate(-18.93)"/><rect class="cls-9" x="863.43" y="632.35" width="52" height="37" rx="4.5" transform="translate(-253.89 162.21) rotate(-18.93)"/><rect class="cls-9" x="929.64" y="609.64" width="52" height="37" rx="4.5" transform="translate(-242.94 182.47) rotate(-18.93)"/><rect class="cls-9" x="995.85" y="586.93" width="52" height="37" rx="4.5" transform="translate(-231.99 202.72) rotate(-18.93)"/><rect class="cls-9" x="1128.28" y="541.51" width="52" height="37" rx="4.5" transform="translate(-210.09 243.23) rotate(-18.93)"/><rect class="cls-9" x="882.89" y="689.11" width="52" height="37" rx="4.5" transform="translate(-271.25 171.6) rotate(-18.93)"/><rect class="cls-9" x="949.11" y="666.4" width="52" height="37" rx="4.5" transform="translate(-260.3 191.85) rotate(-18.93)"/><rect class="cls-9" x="1015.32" y="643.69" width="52" height="37" rx="4.5" transform="translate(-249.35 212.11) rotate(-18.93)"/><path class="cls-9" d="M1102.4,558.25l-40.67,14a4.5,4.5,0,0,0-2.8,5.71l2.34,6.81L1068,604.4l19.46,56.75a4.51,4.51,0,0,0,5.72,2.8l40.67-14a4.51,4.51,0,0,0,2.8-5.72l-19.47-56.75-6.75-19.68-2.33-6.81A4.5,4.5,0,0,0,1102.4,558.25Z" transform="translate(-90.84 -161.55)"/><rect class="cls-9" x="1147.75" y="598.27" width="52" height="37" rx="4.5" transform="translate(-227.45 252.61) rotate(-18.93)"/><rect class="cls-9" x="843.96" y="575.6" width="52" height="37" rx="4.5" transform="translate(-236.53 152.83) rotate(-18.93)"/><rect class="cls-9" x="910.17" y="552.89" width="52" height="37" rx="4.5" transform="translate(-225.58 173.08) rotate(-18.93)"/><rect class="cls-9" x="976.39" y="530.18" width="52" height="37" rx="4.5" transform="translate(-214.63 193.34) rotate(-18.93)"/><rect class="cls-9" x="1042.6" y="507.47" width="52" height="37" rx="4.5" transform="translate(-203.68 213.59) rotate(-18.93)"/><rect class="cls-9" x="1108.82" y="484.76" width="52" height="37" rx="4.5" transform="translate(-192.73 233.84) rotate(-18.93)"/></g><rect class="cls-36" x="1020.6" y="449.47" width="52" height="37" rx="4.5" transform="translate(-186.06 203.31) rotate(-18.93)"/><rect class="cls-36" x="1086.81" y="426.76" width="52" height="37" rx="4.5" transform="matrix(0.95, -0.32, 0.32, 0.95, -175.11, 223.57)"/><rect class="cls-34" x="802.49" y="460.85" width="52" height="37" rx="4.5" transform="translate(-201.55 133.17) rotate(-18.93)"/><rect class="cls-36" x="1125.74" y="540.27" width="52" height="37" rx="4.5" transform="translate(-209.83 242.34) rotate(-18.93)"/><path class="cls-36" d="M1099.86,557l-40.67,14a4.51,4.51,0,0,0-2.8,5.72l2.33,6.8,6.76,19.69,19.46,56.75a4.51,4.51,0,0,0,5.72,2.8l40.67-14a4.51,4.51,0,0,0,2.8-5.72l-19.47-56.75-6.75-19.69-2.33-6.8A4.51,4.51,0,0,0,1099.86,557Z" transform="translate(-90.84 -161.55)"/><rect class="cls-36" x="1145.21" y="597.02" width="52" height="37" rx="4.5" transform="translate(-227.19 251.72) rotate(-18.93)"/><rect class="cls-33" x="821.95" y="517.6" width="52" height="37" rx="4.5" transform="translate(-218.91 142.55) rotate(-18.93)"/><rect class="cls-33" x="888.17" y="494.89" width="52" height="37" rx="4.5" transform="translate(-207.96 162.81) rotate(-18.93)"/><rect class="cls-33" x="954.38" y="472.18" width="52" height="37" rx="4.5" transform="translate(-197.01 183.06) rotate(-18.93)"/><rect class="cls-33" x="860.89" y="631.11" width="52" height="37" rx="4.5" transform="translate(-253.63 161.32) rotate(-18.93)"/><rect class="cls-33" x="927.1" y="608.4" width="52" height="37" rx="4.5" transform="translate(-242.68 181.58) rotate(-18.93)"/><rect class="cls-33" x="993.31" y="585.69" width="52" height="37" rx="4.5" transform="translate(-231.73 201.83) rotate(-18.93)"/><rect class="cls-33" x="880.35" y="687.86" width="52" height="37" rx="4.5" transform="translate(-270.99 170.71) rotate(-18.93)"/><rect class="cls-33" x="946.57" y="665.15" width="52" height="37" rx="4.5" transform="translate(-260.04 190.96) rotate(-18.93)"/><rect class="cls-33" x="1012.78" y="642.44" width="52" height="37" rx="4.5" transform="translate(-249.09 211.22) rotate(-18.93)"/><rect class="cls-33" x="841.42" y="574.36" width="52" height="37" rx="4.5" transform="translate(-236.27 151.94) rotate(-18.93)"/><rect class="cls-33" x="907.63" y="551.64" width="52" height="37" rx="4.5" transform="matrix(0.95, -0.32, 0.32, 0.95, -225.32, 172.19)"/><rect class="cls-33" x="973.85" y="528.93" width="52" height="37" rx="4.5" transform="translate(-214.37 192.44) rotate(-18.93)"/><rect class="cls-36" x="1040.06" y="506.22" width="52" height="37" rx="4.5" transform="translate(-203.42 212.7) rotate(-18.93)"/><rect class="cls-36" x="1106.27" y="483.51" width="52" height="37" rx="4.5" transform="translate(-192.47 232.95) rotate(-18.93)"/><rect class="cls-36" x="868.7" y="438.14" width="52" height="37" rx="4.5" transform="translate(-190.6 153.42) rotate(-18.93)"/><rect class="cls-36" x="934.92" y="415.43" width="52" height="37" rx="4.5" transform="translate(-179.65 173.67) rotate(-18.93)"/><rect class="cls-36" x="1001.13" y="392.72" width="52" height="37" rx="4.5" transform="translate(-168.7 193.93) rotate(-18.93)"/><rect class="cls-36" x="1067.34" y="370" width="52" height="37" rx="4.5" transform="translate(-157.75 214.18) rotate(-18.93)"/><path class="cls-6" d="M909,305.35l1,2.74-3.79,32.6-4.3,1.47,4-31.77,0-.09-15,5.16L889.61,312Z" transform="translate(-90.84 -161.55)"/><path class="cls-6" d="M931.86,300.79a15.3,15.3,0,0,0-3.06,1.26,13.21,13.21,0,0,0-6.94,14.59l.14-.05a9.7,9.7,0,0,1,6.21-6.09c5.44-1.87,10.62.74,12.68,6.75,1.93,5.63-.12,12.15-6.5,14.34-6.58,2.25-12.63-1.38-15.37-9.37-2.08-6.06-1.54-11.58.45-15.65a17.64,17.64,0,0,1,8.28-7.91,21.51,21.51,0,0,1,2.94-1.28Zm4.9,18.14c-1.51-4.4-4.92-6.19-8.75-4.87a7.25,7.25,0,0,0-4.67,5.83,3.73,3.73,0,0,0,.16,2c1.83,5,5.43,8,9.79,6.48C936.88,327.14,938.27,323.33,936.76,318.93Z" transform="translate(-90.84 -161.55)"/><path class="cls-6" d="M957.12,292.76l-11.73,4,1.53,8.31a16.57,16.57,0,0,1,2.44-1,13.81,13.81,0,0,1,7.19-.62,9.28,9.28,0,0,1,7.11,6.39c2.06,6-1.18,12.14-7.85,14.43a15.84,15.84,0,0,1-8.31.73l0-3.52a14.62,14.62,0,0,0,7.16-.55c3.93-1.35,6.41-5.06,5-9.17s-5-5.89-11.18-3.78a33.28,33.28,0,0,0-4.14,1.79l-3.08-15.44,14.71-5Z" transform="translate(-90.84 -161.55)"/><path class="cls-6" d="M972.38,318l-.88-2.56,2.18-4.29c5.28-10.16,7.47-15.35,5.93-20-1.07-3.13-3.58-5.49-8.17-3.92a11.05,11.05,0,0,0-5.63,4.84l-2.33-2.48a14.23,14.23,0,0,1,7.63-6.1c6.62-2.27,11,1.31,12.48,5.71,1.95,5.67-.59,11.67-4.93,20.14L977,312.43l0,.1,13.81-4.74,1.18,3.45Z" transform="translate(-90.84 -161.55)"/><path class="cls-6" d="M996.12,307.08a3,3,0,0,1,1.82-3.95,3.15,3.15,0,0,1,2,6A3,3,0,0,1,996.12,307.08Z" transform="translate(-90.84 -161.55)"/><path class="cls-6" d="M1021.47,283.59c3.59,10.45,1.69,17.55-5.12,19.89-6,2.06-12-2.18-15.59-12.31-3.54-10.32-1-17.52,5.21-19.66C1012.45,269.29,1018.12,273.79,1021.47,283.59Zm-16.53,6.2c2.74,8,6.76,11.69,10.54,10.39,4.26-1.46,4.59-7.13,1.9-15-2.6-7.57-6.24-11.87-10.55-10.39C1003.19,276.06,1002.07,281.41,1004.94,289.79Z" transform="translate(-90.84 -161.55)"/><path class="cls-6" d="M1045.74,275.26c3.58,10.46,1.68,17.56-5.13,19.89-6,2.06-12-2.17-15.59-12.31-3.53-10.31-1-17.51,5.21-19.65C1036.71,261,1042.38,265.47,1045.74,275.26Zm-16.54,6.2c2.74,8,6.76,11.69,10.54,10.4,4.26-1.46,4.59-7.13,1.9-15-2.6-7.57-6.24-11.87-10.54-10.39C1027.45,267.74,1026.33,273.09,1029.2,281.46Z" transform="translate(-90.84 -161.55)"/><path class="cls-37" d="M936.09,993.44a3.09,3.09,0,0,1,.91-4.28l27.54-17.92a3.09,3.09,0,0,1,4.29.91l86.73,133.33c.94,1.43,14.24,27.83,12.8,28.77l-24.42,15.89c-1.43.93-20.63-22.62-21.57-24.06Z" transform="translate(-90.84 -161.55)"/><path class="cls-38" d="M1023.35,1127.42l32.59-21.2c2.43,4.51,13.72,27.19,12.4,28l-24.43,15.89C1042.64,1151,1027.48,1132.66,1023.35,1127.42Z" transform="translate(-90.84 -161.55)"/><path class="cls-39" d="M939.66,998.93l-3.57-5.49a3.09,3.09,0,0,1,.91-4.29l27.54-17.91a3.1,3.1,0,0,1,4.29.9l3.57,5.49Z" transform="translate(-90.84 -161.55)"/><rect class="cls-37" x="888.12" y="823.81" width="32.51" height="170.15" transform="translate(-440.16 478.6) rotate(-33.04)"/><polygon class="cls-38" points="749.08 676.92 775.29 659.87 780.77 667.15 753.51 684.88 749.08 676.92"/><polygon class="cls-37" points="720.24 628.62 742.82 613.93 775.29 659.87 749.08 676.92 720.24 628.62"/><rect class="cls-38" x="806.96" y="775.99" width="26.78" height="7.44" transform="translate(-383.33 411.93) rotate(-33.05)"/><path class="cls-38" d="M790.37,744.54l10-6.49c5.13,5.54,29.2,31.24,29.2,31.24l-22.45,14.6S794.37,755.25,790.37,744.54Z" transform="translate(-90.84 -161.55)"/><path class="cls-37" d="M788.09,730.12c1.56-1,10.9,8.81,10.9,8.81l-7.27,4.73S786.53,731.14,788.09,730.12Z" transform="translate(-90.84 -161.55)"/><path class="cls-38" d="M1032.41,1105.7,967.1,1005.31c1.41-.11,5.55,1.18,15.36,14,0,0-3.07-.66-.5,2.91l24.79,35.65s8.25,7.76,12.18,10.38l27,41.49S1038.05,1111.33,1032.41,1105.7Z" transform="translate(-90.84 -161.55)"/><path class="cls-40" d="M1032.41,1105.7,967.1,1005.31c-.67,1.24-1.16,5.55,6.61,19.73,0,0,.65-3.07,2.87.72l22.54,37.11s3.75,10.69,4.56,15.34l27,41.49S1035.27,1113.13,1032.41,1105.7Z" transform="translate(-90.84 -161.55)"/></svg>