<svg width="692" height="692" viewBox="0 0 692 692" fill="none" xmlns="http://www.w3.org/2000/svg">
<path d="M251.32 449.18H320.398V630.711H111.973C84.0335 630.711 61.2891 607.968 61.2891 580.027V111.973C61.2891 84.0337 84.0337 61.2891 111.973 61.2891H580.027C607.968 61.2891 630.711 84.0335 630.711 111.973V580.027C630.711 607.968 607.968 630.711 580.027 630.711H412.977V449.18H504.567C508.722 449.18 512.268 446.176 512.951 442.077L525.548 366.499C526.411 361.318 522.416 356.602 517.163 356.602H412.977V286.523C412.977 269.276 427.018 255.234 444.266 255.234H520.844C525.538 255.234 529.344 251.429 529.344 246.734V171.156C529.344 166.462 525.538 162.656 520.844 162.656H424.871C367.258 162.656 320.398 209.516 320.398 267.129V356.602H251.32C246.626 356.602 242.82 360.407 242.82 365.102V440.68C242.82 445.374 246.626 449.18 251.32 449.18ZM580.027 684.5C637.64 684.5 684.5 637.64 684.5 580.027V111.973C684.5 54.3598 637.64 7.5 580.027 7.5H111.973C54.3598 7.5 7.5 54.3598 7.5 111.973V580.027C7.5 637.64 54.3598 684.5 111.973 684.5H580.027Z" fill="#F8FEFE" stroke="#F8FEFE" stroke-width="15" stroke-linejoin="round"/>
</svg>
