<svg width="518" height="518" viewBox="0 0 518 518" fill="none" xmlns="http://www.w3.org/2000/svg">
<path d="M370.903 7.5H147.097C70.1154 7.5 7.5 70.1154 7.5 147.097V370.907C7.5 447.885 70.1156 510.5 147.097 510.5H370.907C447.885 510.5 510.5 447.885 510.5 370.907V147.097C510.5 70.1154 447.885 7.5 370.903 7.5ZM466.891 370.907C466.891 423.825 423.826 466.891 370.903 466.891H147.097C94.1745 466.891 51.1086 423.825 51.1086 370.907V147.097C51.1086 94.1747 94.1747 51.1086 147.097 51.1086H370.907C423.825 51.1086 466.891 94.1745 466.891 147.097V370.907ZM259 118.066C181.281 118.066 118.066 181.281 118.066 259C118.066 336.719 181.281 399.934 259 399.934C336.719 399.934 399.934 336.719 399.934 259C399.934 181.281 336.719 118.066 259 118.066ZM259 356.325C205.344 356.325 161.675 312.66 161.675 259C161.675 205.344 205.344 161.675 259 161.675C312.66 161.675 356.325 205.344 356.325 259C356.325 312.66 312.66 356.325 259 356.325ZM377.305 117.606C377.305 127.713 385.518 135.926 395.625 135.926C405.733 135.926 413.948 127.714 413.948 117.606C413.948 107.492 405.731 99.2867 395.625 99.2867C385.52 99.2867 377.305 107.494 377.305 117.606Z" fill="#F8FEFE" stroke="#F8FEFE" stroke-width="15"/>
</svg>
