<svg width="1256" height="787" viewBox="0 0 1256 787" fill="none" xmlns="http://www.w3.org/2000/svg">
<path d="M1049.88 407.394L1049.4 408.163C1048.17 410.137 1045.89 413.787 1044.35 416.697C1045.82 418.8 1049.35 422.758 1054.57 428.327C1059.45 433.524 1065.73 440.057 1073.06 447.672C1074.17 448.823 1075.3 449.997 1076.45 451.196C1094.02 469.46 1116.78 493.222 1140.11 519.286C1163.44 545.349 1187.35 573.725 1207.23 601.219C1227.1 628.696 1242.98 655.361 1250.19 677.994L1250.2 678.005L1250.2 678.016C1261.25 715.678 1251.15 739.991 1240.75 753.89L1239.95 753.291L1240.75 753.891C1229.98 768.266 1208.51 785.269 1167.49 785.269H1039.11C1003.91 785.269 980.718 772.134 955.571 748.161C943.456 736.611 930.864 722.524 916.249 706.175L914.671 704.411C899.374 687.301 881.824 667.746 860.262 645.995C806.267 593.527 779.31 579.089 767.424 575.318C766.876 586.23 767.078 602.341 767.298 619.862C767.37 625.602 767.444 631.493 767.494 637.402L767.494 637.415L767.494 637.428C767.438 640.605 767.462 644.229 767.487 648.207C767.628 670.186 767.837 702.99 755.222 731.028C747.75 747.634 735.773 762.606 716.633 772.717C697.514 782.818 671.332 788.022 635.519 785.269C436.363 785.249 277.726 634.973 168.96 471.668C114.553 389.979 72.5739 304.959 44.1944 233.682C30.0044 198.043 19.2107 165.831 11.9628 139.18C4.72126 112.552 1 91.4076 1 77.9322C1 53.9505 8.85409 34.6918 23.3792 21.4373C37.8923 8.19372 58.9469 1.05215 85.1528 1.05215H213.534C243.578 1.05215 264.039 10.3263 278.742 24.6808C293.407 38.999 302.259 58.2928 309.263 78.1736L309.266 78.184C358.319 222.48 427.35 335.808 467.196 379.747C463.672 320.776 465.369 278.883 466.674 246.677C467.148 234.975 467.57 224.552 467.671 215.053C467.863 197.016 466.899 182.337 462.979 168.505C459.063 154.687 452.181 141.655 440.457 126.952C413.29 92.9634 412.131 61.4517 424.578 38.383C436.986 15.3887 462.809 1 489.179 1H690.958C711.89 1 727.327 5.90834 738.636 14.6331C749.942 23.3557 757.011 35.8069 761.37 50.6823C769.257 77.5987 768.345 112.76 767.408 148.869C767.312 152.569 767.216 156.278 767.129 159.989C767.129 159.989 767.129 159.989 767.129 159.99L766.129 159.966C765.196 200.762 764.005 255.572 765.732 327.265L1049.88 407.394ZM1049.88 407.394C1066.76 384.964 1105.96 327.612 1143.38 266.387C1162.33 235.381 1180.84 203.369 1195.77 174.385C1210.67 145.466 1222.04 119.495 1226.71 100.528C1226.78 100.373 1226.84 100.176 1226.86 99.9551C1236.92 65.2778 1227.67 42.6667 1218.01 29.8213L1218.01 29.8188C1203.47 10.6192 1180.38 1 1149.45 1H1021.06C977.679 1 944.71 22.8828 928.069 62.736L928.065 62.7455L928.061 62.7552C914.286 97.7673 888.033 151.318 857.959 202.497C828.426 252.757 795.279 300.607 766.711 326.388L1049.88 407.394Z" fill="#F8FEFE" stroke="#F8FEFE" stroke-width="2"/>
</svg>
