<svg width="523" height="399" viewBox="0 0 523 399" fill="none" xmlns="http://www.w3.org/2000/svg">
<path d="M204.855 113.302L204.854 113.303C197.716 117.534 193.445 125.031 193.445 133.328V256.047C193.445 264.305 197.689 271.789 204.78 276.025C208.475 278.232 212.586 279.348 216.715 279.348C220.496 279.348 224.278 278.413 227.746 276.546C227.747 276.545 227.747 276.545 227.748 276.545L340.864 215.721L340.864 215.721C348.386 211.674 353.082 203.852 353.117 195.307V195.306C353.148 186.76 348.508 178.903 341.009 174.799L339.809 176.992L341.009 174.799L227.895 112.908C220.617 108.926 211.989 109.075 204.855 113.302ZM515.723 97.2926L515.722 97.2786L515.699 97.0442L515.697 97.0314C515.473 94.8969 514.266 84.5505 510.853 72.3546C507.46 60.2303 501.793 45.9254 492.456 36.1517C471.223 13.5513 447.101 10.8078 435.754 9.5172L435.743 9.51602L435.743 9.51593C434.81 9.41007 433.982 9.31506 433.248 9.21724L433.214 9.21259L433.179 9.20893L432.284 9.11518L432.244 9.11103L432.205 9.10815C365.025 4.22318 263.939 3.52012 261.151 3.50419L261.109 3.50236L261 3.49764L260.891 3.50236L260.849 3.50419C258.06 3.52013 156.97 4.22321 89.1875 9.10803L89.1481 9.11087L89.1088 9.11495L88.2065 9.2087L88.1691 9.21258L88.1318 9.21759C87.5599 9.29446 86.9413 9.36615 86.2478 9.44651C86.0946 9.46427 85.9377 9.48245 85.7769 9.5012L85.7719 9.50177C74.5306 10.7991 50.6502 13.5552 29.3623 36.9689C20.4789 46.6261 14.8799 60.658 11.4385 72.5398C7.97703 84.4911 6.60416 94.6087 6.34352 96.6938L6.34153 96.7098L6.33974 96.7258L6.28114 97.2492L6.27796 97.2776L6.27543 97.3061C6.12172 99.0364 2.5 139.951 2.5 181.051V219.363C2.5 260.463 6.12173 301.378 6.27539 303.111L6.27729 303.133L6.27957 303.154L6.30691 303.412L6.30714 303.414C6.53202 305.517 7.73794 315.68 11.1404 327.701C14.5226 339.65 20.1664 353.774 29.4485 363.544C49.4462 385.416 74.7192 388.309 87.9349 389.822L88.0204 389.831L88.3047 387.348L88.0204 389.831L88.1 389.841C90.183 390.079 91.8541 390.27 92.9697 390.466L93.0143 390.474L93.0591 390.48L94.2427 390.644L94.2958 390.652L94.3491 390.657C133.531 394.385 256.055 396.217 261.352 396.293C261.355 396.293 261.359 396.293 261.363 396.293L261.492 396.296L261.555 396.298L261.617 396.296L261.748 396.293C263.921 396.281 365.43 395.589 432.822 390.689L432.862 390.686L432.901 390.682L433.796 390.588L433.83 390.584L433.863 390.58C434.678 390.472 435.605 390.374 436.664 390.264L436.67 390.263L436.694 390.261C447.873 389.074 471.634 386.552 492.639 363.444C501.521 353.785 507.121 339.753 510.563 327.871C514.025 315.92 515.398 305.804 515.657 303.718L515.659 303.703L515.66 303.688L515.719 303.165L515.722 303.136L515.725 303.107C515.878 301.374 519.504 260.463 519.504 219.363V181.051C519.5 139.951 515.878 99.0401 515.725 97.3066L515.723 97.2926ZM466.813 339.819L466.807 339.825L466.802 339.83C454.702 353.143 442.41 354.457 432.979 355.455C431.845 355.574 430.778 355.691 429.802 355.812C364.543 360.527 266.552 361.259 261.693 361.289C256.174 361.208 136.082 359.363 98.2845 355.866C96.2979 355.545 94.1708 355.3 91.9996 355.055C80.7338 353.764 66.3018 352.044 55.1975 339.83L55.1861 339.817L55.1745 339.805L54.8972 339.508L54.8856 339.496L54.8739 339.484C51.2383 335.696 48.0876 328.756 45.6742 321.02C43.295 313.393 41.752 305.393 41.1285 299.818C40.8709 296.881 37.5039 257.582 37.5039 219.363V181.051C37.5039 143.449 40.77 104.7 41.1147 100.748C41.8594 95.0738 43.5236 87.006 45.9685 79.3145C48.4506 71.5057 51.6187 64.475 55.1877 60.5947L55.1926 60.5895L55.1974 60.5841C67.697 46.836 80.7591 45.3163 89.7947 44.2725L89.7961 44.2724L90.0164 44.2468C90.7788 44.1584 91.5145 44.0731 92.2026 43.9846C157.875 39.285 255.498 38.5457 260.886 38.5049L260.984 38.5039C260.989 38.5039 260.995 38.5039 261.001 38.504C264.865 38.5296 363.544 39.2457 429.176 43.9849C429.965 44.0835 430.82 44.182 431.72 44.2856L431.776 44.2922L431.779 44.2925C441.115 45.3564 454.562 46.9123 466.985 60.163L466.986 60.1648L467.108 60.2937L467.117 60.3035L467.126 60.3132C470.755 64.0942 473.907 71.1169 476.323 78.9811C478.703 86.7314 480.247 94.8842 480.871 100.577C481.115 103.338 484.496 142.736 484.496 181.051V219.363C484.496 257.01 481.222 295.802 480.885 299.68C480.262 304.485 478.682 312.46 476.247 320.325C473.772 328.32 470.541 335.767 466.813 339.819Z" fill="#F8FEFE" stroke="#F8FEFE" stroke-width="5"/>
</svg>
